<svg id="Layer_1" data-name="Layer 1" xmlns="http://www.w3.org/2000/svg" xmlns:xlink="http://www.w3.org/1999/xlink" viewBox="0 0 300 345"><defs><style>.cls-1{fill:url(#linear-gradient);}.cls-2{fill:#f3c1da;}.cls-3{fill:#da77ac;}.cls-4{fill:#edb1d0;}.cls-5,.cls-6{fill:none;stroke-linecap:round;}.cls-5{stroke:#f38db6;stroke-linejoin:round;stroke-width:40px;}.cls-6{stroke:#e565a0;stroke-miterlimit:10;stroke-width:8px;}.cls-7{fill:#cd4d92;}.cls-8{fill:#2f2c38;}.cls-9{fill:#fff;}.cls-10{fill:#f38db6;}.cls-11{fill:#e565a0;}.cls-12{fill:#fbd9e8;}</style><linearGradient id="linear-gradient" x1="150" y1="356.11" x2="150" y2="161.16" gradientUnits="userSpaceOnUse"><stop offset="0" stop-color="#f3c1da"/><stop offset="0.69" stop-color="#e573ac"/></linearGradient></defs><g id="underwater"><path class="cls-1" d="M263.62,345H36.38A36.38,36.38,0,0,1,0,308.62V259.14H300v49.48A36.38,36.38,0,0,1,263.62,345Z"/><rect class="cls-2" y="45" width="300" height="253.39" rx="36.38"/><path class="cls-3" d="M289.76,284.59c-9.84-8.62-24.3-16.65-36.8-5.26-13.1,11.93-3.31,27.15,6.57,37.39a16.53,16.53,0,0,0,24-.36l7.44-8.05A16.57,16.57,0,0,0,289.76,284.59Z"/><path class="cls-3" d="M46.82,279.33c-12.51-11.39-27-3.36-36.81,5.26a16.57,16.57,0,0,0-1.23,23.72l7.44,8.05a16.53,16.53,0,0,0,24,.36C50.13,306.48,59.91,291.26,46.82,279.33Z"/><path class="cls-4" d="M200.37,215.58c0-31.33-24-73.42-53.59-73.42s-53.59,39.08-53.59,73.42c0,25,15.59,45.2,53.59,45.2S200.37,240.55,200.37,215.58Z"/><path class="cls-5" d="M84.81,261.77s20.58-15.66,65.19-15.66,65.19,15.66,65.19,15.66"/><path class="cls-6" d="M84.81,261.77s20.58-15.66,65.19-15.66,65.19,15.66,65.19,15.66"/><path class="cls-3" d="M197.62,232.37c-12.06-3.48-27.86-6.26-47.62-6.26-23.08,0-40.76,3.79-53.38,8.06,6.44,15.69,22.25,26.61,50.16,26.61C175.74,260.78,191.68,249,197.62,232.37Z"/><path class="cls-7" d="M150,242.11c-18.57,0-33.1,2.64-43.85,5.81a41.12,41.12,0,0,0,8.6,6A153.05,153.05,0,0,1,150,250.11,157.15,157.15,0,0,1,180.61,253a40.4,40.4,0,0,0,8.21-6.4A160,160,0,0,0,150,242.11Z"/><path class="cls-2" d="M188.94,202.77c0-29.23-18.88-68.49-42.16-68.49s-42.17,36.45-42.17,68.49c0,23.29,12.27,42.17,42.17,42.17S188.94,226.06,188.94,202.77Z"/><ellipse class="cls-8" cx="260.93" cy="222.83" rx="21.24" ry="23.27" transform="translate(-41.88 61.44) rotate(-12.44)"/><circle class="cls-9" cx="265.47" cy="214.53" r="8.68"/><ellipse class="cls-8" cx="39.07" cy="222.83" rx="23.27" ry="21.24" transform="translate(-186.95 212.99) rotate(-77.56)"/><circle class="cls-9" cx="44.45" cy="214.53" r="8.68"/><path class="cls-10" d="M249.21,270.14c12.51-11.39,27-3.36,36.81,5.25a16.58,16.58,0,0,1,1.22,23.73l-7.43,8.05a16.54,16.54,0,0,1-24,.36C245.9,297.29,236.12,282.06,249.21,270.14Z"/><path class="cls-11" d="M261.43,275.13l19.16,7.75a4.84,4.84,0,0,1-3.63,9,5.26,5.26,0,0,1-1.33-.81L259.92,277.6a1.47,1.47,0,0,1,1.51-2.47Z"/><path class="cls-11" d="M255.06,281.9l15.85,12.61a4.84,4.84,0,0,1-6,7.58,5.13,5.13,0,0,1-1.06-1.18l-10.91-17.06a1.47,1.47,0,0,1,.44-2A1.49,1.49,0,0,1,255.06,281.9Z"/><path class="cls-10" d="M50.79,270.14c-12.51-11.39-27-3.36-36.81,5.25a16.58,16.58,0,0,0-1.22,23.73l7.43,8.05a16.54,16.54,0,0,0,24,.36C54.1,297.29,63.88,282.06,50.79,270.14Z"/><path class="cls-11" d="M40.08,277.6,24.37,291a4.84,4.84,0,0,1-6.29-7.35,4.7,4.7,0,0,1,1.33-.81l19.16-7.75a1.47,1.47,0,0,1,1.51,2.47Z"/><path class="cls-11" d="M47.09,283.85,36.18,300.91a4.84,4.84,0,1,1-7.09-6.4L44.94,281.9a1.47,1.47,0,0,1,2.15,2Z"/><ellipse class="cls-12" cx="174.83" cy="193.07" rx="8.84" ry="11.99" transform="translate(-37.49 42.19) rotate(-12.44)"/><circle class="cls-12" cx="166.79" cy="172.5" r="6.15"/><ellipse class="cls-12" cx="265.15" cy="83.61" rx="16.01" ry="21.71" transform="translate(9.82 193.61) rotate(-40.81)"/><ellipse class="cls-12" cx="274.15" cy="142.16" rx="11.66" ry="15.82"/><circle class="cls-12" cx="227.79" cy="72.59" r="13.92"/></g></svg>