<svg version="1.2" xmlns="http://www.w3.org/2000/svg" viewBox="0 0 300 345" width="300" height="345">
	<title>loaderBlook-svg</title>
	<defs>
		<linearGradient id="g1" x2="1" gradientUnits="userSpaceOnUse" gradientTransform="matrix(0,-194.95,681.167,0,150,356.11)">
			<stop offset="0" stop-color="#9a49aa"/>
			<stop offset="1" stop-color="#36394b"/>
		</linearGradient>
	</defs>
	<style>
		.s0 { fill: url(#g1) } 
		.s1 { fill: #9a49aa } 
		.s2 { fill: #ffffff } 
	</style>
	<path id="path839" class="s0" d="m263.6 345h-227.2c-4.8 0-9.5-0.9-13.9-2.8-4.5-1.8-8.5-4.5-11.8-7.9-3.4-3.3-6.1-7.3-7.9-11.8-1.9-4.4-2.8-9.1-2.8-13.9v-49.5h300v49.5c0 4.8-0.9 9.5-2.8 13.9-1.8 4.5-4.5 8.5-7.9 11.8-3.3 3.4-7.3 6.1-11.8 7.9-4.4 1.9-9.1 2.8-13.9 2.8z"/>
	<path id="rect841" class="s1" d="m0 81.4c0-20.1 16.3-36.4 36.4-36.4h227.2c20.1 0 36.4 16.3 36.4 36.4v180.6c0 20.1-16.3 36.4-36.4 36.4h-227.2c-20.1 0-36.4-16.3-36.4-36.4z"/>
	<path id="P" class="s2" aria-label="P"  d="m137.3 220.4v40.8q0 3.5-16.3 5.7-16.4 2.1-32.7 2.1-16.4 0-21-1.9-4.5-1.9-4.5-5.9v-172.5q0-12.8 77.2-12.8 46.7 0 61.7 6.4 18.3 7.5 24.7 20.4 8.6 16.6 8.6 42.6 0 35.7-12.4 51.8-8.8 11.8-17.7 15.3-8.8 3.5-14.7 5.1-5.7 1.3-14.2 2.1-11.8 1.1-32.2 1.1zm0.2-99.5v55h6.5q5.1 0 8-1.4 3-1.6 5.1-8 2.4-6.7 2.4-18.5 0-12.1-2.6-18.2-2.5-6.5-5.1-7.6-2.5-1.3-5.9-1.3z"/>
</svg>