<?xml version="1.0" encoding="UTF-8"?>
<!-- Generator: Adobe Illustrator 25.2.1, SVG Export Plug-In . SVG Version: 6.00 Build 0)  -->
<svg version="1.1" id="Layer_1" xmlns="http://www.w3.org/2000/svg" xmlns:xlink="http://www.w3.org/1999/xlink" x="0px" y="0px" viewBox="0 0 300 345" style="enable-background:new 0 0 300 345;" xml:space="preserve">
<style type="text/css">
	.st0{fill:none;stroke:#414042;stroke-width:6;stroke-linecap:round;stroke-miterlimit:10;}
	.st1{fill:#D49E7E;}
	.st2{fill:url(#SVGID_1_);fill-opacity:0.8;}
	.st3{fill:#DD7399;fill-opacity:0.5;}
	.st4{fill:#DD7399;fill-opacity:0.59;}
	.st5{fill:#FBDDEA;fill-opacity:0.5;}
	.st6{fill:#FBDDEA;}
	.st7{fill:#DCBF9A;}
	.st8{fill:none;stroke:#414042;stroke-width:6.11;stroke-linecap:round;stroke-miterlimit:10;}
	.st9{fill:#F1F2F2;}
	.st10{fill:#231F20;}
</style>
<g id="alice_in_wonderland">
	<g id="faity">
		<path class="st0" d="M19.9,89.8c0,0,45.2,11,130.1,11s129.6-10.5,129.6-10.5"/>
		<path class="st1" d="M220.8,40.8H75.6c-12.8,0-23.2,5.7-23.2,12.8v17.5c0,7.1,10.4,12.8,23.2,12.8h145.2    c12.8,0,23.2-5.8,23.2-12.8V53.6C244,46.5,233.6,40.8,220.8,40.8z"/>
		
			<linearGradient id="SVGID_1_" gradientUnits="userSpaceOnUse" x1="149.6685" y1="4613.1899" x2="150.7385" y2="5384.6802" gradientTransform="matrix(1 0 0 1 0 -4635.6001)">
			<stop offset="0.19" style="stop-color:#C7E9F6"/>
			<stop offset="0.63" style="stop-color:#10AFD1"/>
		</linearGradient>
		<path class="st2" d="M275.2,90.1V79.6c0-20.1-16.3-36.4-36.4-36.4l0,0H61.1c-20.1,0-36.4,16.3-36.4,36.4v10.5    C10,95.1,0,109,0,124.6v184C0,328.7,16.3,345,36.4,345c0,0,0,0,0,0h227.3c20.1,0,36.4-16.3,36.4-36.4l0,0l0,0v-184    C300,109,290,95.1,275.2,90.1z"/>
		<path class="st3" d="M247.9,288H48.4c-17.6,0-31.9,8.7-31.9,19.4v3.7c0,10.7,14.3,19.4,31.9,19.4h199.5c17.6,0,31.9-8.7,31.9-19.4    v-3.7C279.9,296.7,265.6,288,247.9,288z"/>
		<path class="st4" d="M247.9,142.3H48.4c-17.6,0-31.9,8.7-31.9,19.4v149.4c0,10.7,14.3,19.4,31.9,19.4h199.5    c17.6,0,31.9-8.7,31.9-19.4V161.8C279.9,151,265.6,142.3,247.9,142.3z"/>
		<path class="st5" d="M239.7,153.5h-183c-16.2,0-29.3,8.7-29.3,19.4v3.7c0,10.7,13.1,19.4,29.3,19.4h183c16.2,0,29.3-8.7,29.3-19.4    v-3.7C269,162.2,255.8,153.5,239.7,153.5z"/>
		<path class="st6" d="M244,165.5c0-14.8-12-26.8-26.8-26.8s-26.8,12-26.8,26.8C190.3,180.3,244,180.3,244,165.5z"/>
		<path class="st6" d="M200.4,173.9c0.2-10.4-8-19.1-18.5-19.3c-10.4-0.2-19.1,8-19.3,18.5c0,0.3,0,0.6,0,0.9    C162.6,184.3,200.4,184.3,200.4,173.9z"/>
		<path class="st1" d="M220.8,23.4H75.6c-12.8,0-23.2,5.7-23.2,12.8v17.5c0,7.1,10.4,12.8,23.2,12.8h145.2    c12.8,0,23.2-5.7,23.2-12.8V36.2C244,29.1,233.6,23.4,220.8,23.4z"/>
		<path class="st7" d="M220.8,18.4H75.6c-12.8,0-23.2,5.8-23.2,12.8v2.5c0,7.1,10.4,12.8,23.2,12.8h145.2c12.8,0,23.2-5.7,23.2-12.8    v-2.5C244,24.2,233.6,18.4,220.8,18.4z"/>
		<path class="st8" d="M19.9,89.8c0,37.7,105.8,52.6,105.8,52.6"/>
		<path class="st9" d="M129.2,120.2l-30.5-1.5c-6.9-0.3-13.5,2.8-17.6,8.4L13,221.9c-6.6,9.1-4.5,21.9,4.6,28.4c0,0,0,0,0,0l41.6,30    c9.1,6.6,21.9,4.5,28.4-4.6c0,0,0,0,0,0l68.2-94.7c4-5.6,5-12.9,2.4-19.3l-11.1-28.4C144.3,125.7,137.3,120.7,129.2,120.2z     M134.6,148.9c-3.2,4.5-9.5,5.5-14,2.2c-4.5-3.2-5.5-9.5-2.2-14c3.2-4.5,9.4-5.5,13.9-2.3C136.8,138.2,137.9,144.4,134.6,148.9    C134.6,148.9,134.6,149,134.6,148.9L134.6,148.9z"/>
		<path class="st10" d="M59.3,228.5c7.8,5.6,10,15.9,2.7,26.1l-7.4,10.3l-15.1-21.3l-0.6,0.9c-3.8,5.2,0.1,8.1,0.1,8.1l-4.5,3.3    c0,0-8.1-5.8,0-16.9l2.3-3.1C44.2,225.2,52.5,223.6,59.3,228.5z M56.3,234.5c-4-2.8-9-1.6-12.6,3.2L55,253.7l2.8-3.8    C62.1,243.9,60.7,237.7,56.3,234.5z"/>
		<path class="st10" d="M86,210.5c0,0,3.4,7.2-0.9,13.2c-2.7,3.8-7.1,3.6-10.1-0.4l-1.1-1.5c-0.6-0.8-1.4-1.6-2.2-2.3    c-1.1-0.8-2.1-0.6-3.3,0.7c-0.4,0.4-0.8,0.8-1.3,1.2c2.5,3.3,4.9,7.5,5.5,11.6l-4.6,0.5c-1.1-4.4-5.4-9.5-9.6-13l3.6-4.9    c1.6,1.1,2.4,1,4.1-0.9c2.7-3,5.6-3.3,8-1.5c1.5,1.2,2.8,2.7,4,4.2c1.5,1.8,2.6,2,3.6,0.7c1.7-2.3-0.3-6.5-0.3-6.5L86,210.5z"/>
		<path class="st10" d="M83.3,213.7c-2.1-1.8-3.9-3.9-5.4-6.2l-3.9-5.4l3.8-5.3l4.7,6.5c1.8,2.5,2.7,3.8,3.8,4.6    c1,0.8,2.4,0.6,3.2-0.3c0.1-0.1,0.1-0.2,0.2-0.3c1.8-2.5-0.3-6.6-0.3-6.6l4.5-1.2c0,0,3.3,7.4-0.6,12.8    C90.8,215.7,87,216.4,83.3,213.7z M69.2,196.8c-1.8-1.2-2.3-3.6-1.1-5.4c1.2-1.8,3.6-2.3,5.4-1.1c1.8,1.2,2.3,3.6,1.1,5.4    c0,0.1-0.1,0.1-0.1,0.2c-1.1,1.7-3.4,2.2-5.1,1C69.3,196.9,69.3,196.8,69.2,196.8L69.2,196.8z"/>
		<path class="st10" d="M108.8,178.8c0,0,3.4,7.2-1,13.3c-2.8,3.9-7.3,3.8-10.2-0.1l-1.2-1.6c-0.8-1.2-1.7-2.2-2.8-3.2    c-0.9-0.7-2.1-0.6-2.9,0.3c-0.1,0.1-0.1,0.2-0.2,0.3c-1,1.4-0.9,3.4,1.3,6.4l6.9,9.5l-3.8,5.2l-13.1-17.6l3.1-4.3l1.7,1.8    c-0.7-2.4-0.2-5,1.2-7c2.4-3.4,5.5-3.3,8-1.5c1.3,1,2.5,2.2,3.4,3.6l1.7,2.3c1.4,1.9,2.8,1.9,3.7,0.6c1.8-2.5-0.2-6.7-0.2-6.7    L108.8,178.8z"/>
		<path class="st10" d="M123.7,158.2c0,0,3.4,7.2-1,13.4c-2.7,3.7-6.1,3.5-9.4,1.7c-1.8-1-3-1-4,0.3c-1,1.4-0.8,2.4,0.4,4.1l3.9,5.2    l-3.8,5.2l-19.4-27l3.8-5.2l11.3,16.2c0.4-4.8,0.5-8.3-1-12.4l4.8-6.7c1.3,4.3,1.8,8.7,1.5,13.2c1.5-0.7,3.3-0.6,4.8,0.2    c1.9,0.9,2.8,0.8,3.7-0.4c1.8-2.5-0.2-6.8-0.2-6.8L123.7,158.2z"/>
		<path class="st8" d="M126.9,142.3c0,0,83.1,6.7,152.9-52.2"/>
	</g>
</g>
</svg>