<?xml version="1.0" encoding="UTF-8"?>
<!-- Generator: Adobe Illustrator 25.2.1, SVG Export Plug-In . SVG Version: 6.00 Build 0)  -->
<svg version="1.1" id="Layer_1" xmlns="http://www.w3.org/2000/svg" xmlns:xlink="http://www.w3.org/1999/xlink" x="0px" y="0px" viewBox="0 0 300 345" style="enable-background:new 0 0 300 345;" xml:space="preserve">
<style type="text/css">
	.st0{fill:url(#SVGID_1_);}
	.st1{fill:#EDAA72;}
	.st2{fill:#EE3565;}
	.st3{fill:url(#SVGID_2_);}
	.st4{fill:#E3965D;}
	.st5{fill:#D58C55;}
	.st6{fill:#BF6D35;}
	.st7{fill:#C62C6B;}
	.st8{fill:#DD7399;}
	.st9{fill:#FBD8E7;}
</style>
<g id="alice_in_wonderland">
	
		<linearGradient id="SVGID_1_" gradientUnits="userSpaceOnUse" x1="150" y1="-83.94" x2="150" y2="310.87" gradientTransform="matrix(1 0 0 -1 0 346)">
		<stop offset="0" style="stop-color:#EDAA72"/>
		<stop offset="0.18" style="stop-color:#EDAA72"/>
		<stop offset="0.34" style="stop-color:#BF6D35"/>
		<stop offset="1" style="stop-color:#BF6D35"/>
	</linearGradient>
	<path class="st0" d="M300,112.9c0,0-6-9.4-13.5-13.3c-6.4-5.2-14.4-8-22.7-8l0,0c-11.3,0-21.9,5.3-28.8,14.3   c-6.8-9-17.5-14.3-28.8-14.3l0,0c-0.7,0-1.4,0-2.1,0.1c-1.4,0.1-2.8,0.2-4.1,0.5c-7.9,1.4-15.1,5.4-20.6,11.3   c-0.4,0.5-0.9,1-1.3,1.5c-0.4-0.5-0.8-1-1.3-1.5c-6.9-7.6-16.6-11.9-26.8-11.8l0,0c-10.2,0-19.9,4.3-26.8,11.8   c-0.4,0.5-0.9,1-1.3,1.5c-0.4-0.5-0.8-1-1.3-1.5c-5.4-5.9-12.6-9.9-20.5-11.3c-1.4-0.2-2.7-0.4-4.1-0.5c-0.7,0-1.4-0.1-2.1-0.1l0,0   c-11.3,0-22,5.3-28.8,14.3c-6.8-9-17.5-14.3-28.8-14.3l0,0c-8.3,0-16.3,2.8-22.7,8C6,103.5,0,112.9,0,112.9v14.9   c0,8.1,2.7,18.6,7.2,24.6c-1.2,1.7-7.2,3.4-7.2,3.4V171c0,8.1,2.7,16.1,7.8,22.4l-7.8,9.8c0,0-0.1,5.8-0.1,12.7   c0,9,3.3,22.8,8.7,29.1c-1.7,1.9-8.4,0.6-8.4,0.6S0,256.7,0,263l0,0c0,8.7,3.1,22.2,8.2,28.5c-1.3,1.5-8.2,4-8.2,4v13.3   c0,20,16.2,36.2,36.2,36.2c0,0,0,0,0,0l0,0c11.3,0,22-5.3,28.8-14.3c6.8,9,17.5,14.3,28.8,14.3l0,0c10.9,0,21.2-4.9,28.1-13.3   c6.9,8.4,17.2,13.3,28.1,13.3l0,0c10.9,0,21.2-4.9,28.1-13.3c6.9,8.4,17.2,13.3,28.1,13.3l0,0c11.3,0,22-5.3,28.9-14.3   c6.8,9,17.5,14.3,28.8,14.3l0,0c20,0,36.2-16.2,36.2-36.2c0,0,0,0,0,0l0,0v-15.1c0,0-6.4-0.1-8.2-2.3c5.1-6.2,8.2-19.8,8.2-28.5   l0,0c0-6.2-0.3-17.4-0.3-17.4s-6.7,1.3-8.4-0.6c5.4-6.3,8.7-20.1,8.7-29.1c0-6.9,0-12.7,0-12.7l-7.8-9.8c5.1-6.4,7.8-14.3,7.8-22.5   v-15.2c0,0-5.9-1.7-7.1-3.4c4.5-6,7.1-16.5,7.1-24.6V112.9z"/>
	<path class="st1" d="M300,116.2c0-20-16.2-36.2-36.2-36.2l0,0l0,0c-11.3,0-21.9,5.3-28.8,14.3c-6.9-9-17.5-14.3-28.9-14.3l0,0   c-10.9,0-21.2,4.9-28.1,13.3C171.2,84.9,160.9,80,150,80l0,0c-10.9,0-21.2,4.9-28.1,13.3C115.1,84.9,104.8,80,93.9,80l0,0   c-11.3,0-22,5.3-28.8,14.3C58.2,85.3,47.5,80,36.2,80l0,0C16.2,80,0,96.2,0,116.2c0,0,0,0,0,0l0,0c0,7.8,2.5,15.4,7.2,21.6   C2.5,144.1,0,151.7,0,159.4l0,0c0,8.1,2.7,16.1,7.8,22.4C2.7,188.3,0,196.2,0,204.3l0,0c0,8.6,3.1,17,8.7,23.5   C3.1,234.4,0,242.8,0,251.4l0,0c0,8.3,2.9,16.4,8.2,22.9C2.9,280.7,0,288.8,0,297.2l0,0c0,20,16.2,36.2,36.2,36.2c0,0,0,0,0,0l0,0   c11.3,0,22-5.3,28.8-14.3c6.8,9,17.5,14.3,28.8,14.3l0,0c10.9,0,21.2-4.9,28.1-13.3c6.9,8.4,17.2,13.3,28.1,13.3l0,0   c10.9,0,21.2-4.9,28.1-13.3c6.9,8.4,17.2,13.3,28.1,13.3l0,0c11.3,0,22-5.3,28.9-14.3c6.8,9,17.5,14.3,28.8,14.3l0,0   c20,0,36.2-16.2,36.2-36.2l0,0c0-8.3-2.9-16.4-8.2-22.9c5.3-6.5,8.2-14.5,8.2-22.9l0,0c0-8.6-3.1-17-8.7-23.5   c5.6-6.5,8.7-14.9,8.7-23.5l0,0c0-8.1-2.7-16.1-7.8-22.4c5.1-6.4,7.8-14.3,7.8-22.4l0,0c0-7.8-2.5-15.4-7.1-21.6   C297.5,131.6,300,124,300,116.2z"/>
	<path class="st2" d="M288,105.2c0-20-4.2-36.2-24.2-36.2l0,0c-8.5,0-16.7,3-23.2,8.4c-3.3,2.8-8,2.8-11.3,0   c-6.5-5.4-14.7-8.4-23.2-8.4l0,0c-8.2,0-16.2,2.8-22.6,7.9c-3.2,2.6-7.7,2.6-10.9,0c-6.4-5.1-14.4-7.9-22.6-7.9l0,0   c-8.2,0-16.2,2.8-22.6,7.9c-3.2,2.6-7.7,2.6-10.9,0c-6.4-5.1-14.4-7.9-22.6-7.9l0,0c-8.5,0-16.7,3-23.2,8.4c-3.3,2.8-8,2.8-11.3,0   C52.9,72,44.7,69,36.2,69l0,0C16.2,69,12,85.2,12,105.2l0,0c0,5.7,1.2,11.3,3.7,16.5c1.5,3.2,1.5,7,0,10.2   c-2.4,5.2-3.7,10.8-3.7,16.5l0,0c0,6,1.4,12,4.1,17.4c1.6,3.2,1.6,6.9,0,10.1c-2.7,5.4-4.1,11.4-4.1,17.4l0,0   c0,6.4,1.6,12.8,4.6,18.4c1.7,3.2,1.7,7,0,10.2c-3.1,5.7-4.7,12-4.6,18.4l0,0c0,5.6-14.5,10.9-7.6,15.6c3.2,2.3,4,6.7,1.8,10   c-4,6-6.2,13-6.2,20.2l0,0c0,20,16.2,36.2,36.2,36.2c0,0,0,0,0,0l0,0c8.5,0,16.7-3,23.2-8.4c3.3-2.7,8-2.7,11.3,0   c6.5,5.4,14.7,8.4,23.2,8.4l0,0c8.2,0,16.2-2.8,22.6-7.9c3.2-2.6,7.7-2.6,10.9,0c6.4,5.1,14.4,7.9,22.6,7.9l0,0   c8.2,0,16.2-2.8,22.6-7.9c3.2-2.6,7.7-2.6,10.9,0c6.4,5.1,14.4,7.9,22.6,7.9l0,0c8.5,0,16.7-3,23.2-8.4c3.3-2.7,8-2.7,11.3,0   c6.5,5.4,14.7,8.4,23.2,8.4l0,0c20,0,36.2-16.2,36.2-36.2l0,0c0-7.2-2.1-14.2-6.2-20.2c-2.2-3.3-1.4-7.7,1.8-10   c6.9-4.7-7.6-10-7.6-15.6l0,0c0-6.4-1.6-12.7-4.6-18.4c-1.7-3.2-1.7-7,0-10.2c3.1-5.7,4.7-12,4.6-18.4l0,0c0-6-1.4-12-4.1-17.4   c-1.6-3.2-1.6-6.9,0-10.1c2.7-5.4,4.1-11.4,4.1-17.4l0,0c0-5.7-1.2-11.3-3.7-16.5c-1.5-3.2-1.5-7,0-10.2   C286.8,116.6,288,111,288,105.2z"/>
	
		<linearGradient id="SVGID_2_" gradientUnits="userSpaceOnUse" x1="150" y1="-22.81" x2="150" y2="187.77" gradientTransform="matrix(1 0 0 -1 0 346)">
		<stop offset="0" style="stop-color:#EDAA72"/>
		<stop offset="0.18" style="stop-color:#EDAA72"/>
		<stop offset="0.34" style="stop-color:#BF6D35"/>
		<stop offset="1" style="stop-color:#BF6D35"/>
	</linearGradient>
	<path class="st3" d="M300,77.3c0,0-6-9.4-13.5-13.3c-6.4-5.2-14.4-8-22.7-8l0,0c-11.3,0-21.9,5.3-28.8,14.3   c-6.9-9-17.5-14.3-28.9-14.3l0,0c-0.7,0-1.4,0-2.1,0.1c-1.4,0.1-2.8,0.2-4.1,0.5c-7.9,1.4-15.1,5.4-20.6,11.3   c-0.4,0.5-0.9,1-1.3,1.5c-0.4-0.5-0.8-1-1.3-1.5C169.9,60.3,160.2,56,150,56l0,0c-10.2,0-19.9,4.3-26.8,11.8   c-0.4,0.5-0.9,1-1.3,1.5c-0.4-0.5-0.8-1-1.3-1.5c-5.4-5.9-12.6-9.9-20.5-11.3c-1.4-0.2-2.7-0.4-4.1-0.5c-0.7,0-1.4-0.1-2.1-0.1l0,0   c-11.3,0-22,5.3-28.8,14.3C58.2,61.3,47.5,56,36.2,56l0,0C28,56,20,58.8,13.5,64C6,67.9,0,77.3,0,77.3v14.9   c0,8.1,2.7,18.6,7.2,24.6c-1.2,1.7-7.2,3.4-7.2,3.4v15.2c0,8.1,2.7,16.1,7.8,22.4c-0.9,1.1-7.8,9.8-7.8,9.8v12.7   c0,9,3.3,22.8,8.7,29.1C7,211.3,0.3,210,0.3,210S0,221.1,0,227.4l0,0c0,8.7,3.1,22.2,8.2,28.5c-1.3,1.6-8.2,4.1-8.2,4.1v13.3   c0,20,16.2,36.2,36.2,36.2l0,0c11.3,0,22-5.3,28.8-14.3c6.8,9,17.5,14.3,28.8,14.3l0,0c10.9,0,21.2-4.9,28.1-13.3   c6.9,8.4,17.2,13.3,28.1,13.3l0,0c10.9,0,21.2-4.9,28.1-13.3c6.9,8.4,17.2,13.3,28.1,13.3l0,0c11.3,0,22-5.3,28.9-14.3   c6.8,9,17.5,14.3,28.8,14.3l0,0c20,0,36.2-16.2,36.2-36.2v-15.1c0,0-6.4-0.1-8.2-2.3c5.1-6.2,8.2-19.8,8.2-28.5l0,0   c0-6.2-0.3-17.4-0.3-17.4s-6.7,1.3-8.4-0.6c5.4-6.3,8.7-20.1,8.7-29.1c0-6.9,0-12.7,0-12.7s-6.9-8.6-7.8-9.8   c5.1-6.4,7.8-14.3,7.8-22.4v-15.2c0,0-5.9-1.7-7.1-3.4c4.5-6,7.1-16.5,7.1-24.6V77.3z"/>
	<path class="st1" d="M300,81.2c0-20-16.2-36.2-36.2-36.2l0,0l0,0c-11.3,0-21.9,5.3-28.8,14.3c-6.9-9-17.5-14.3-28.9-14.3l0,0   c-10.9,0-21.2,4.9-28.1,13.3C171.2,49.9,160.9,45,150,45l0,0c-10.9,0-21.2,4.9-28.1,13.3C115.1,49.9,104.8,45,93.9,45l0,0   c-11.3,0-22,5.3-28.8,14.3C58.2,50.3,47.5,45,36.2,45l0,0C16.2,45,0,61.2,0,81.2c0,0,0,0,0,0l0,0c0,7.8,2.5,15.4,7.2,21.6   C2.5,109.1,0,116.7,0,124.4l0,0c0,8.1,2.7,16.1,7.8,22.4C2.7,153.3,0,161.2,0,169.3l0,0c0,8.6,3.1,17,8.7,23.5   C3.1,199.4,0,207.7,0,216.4l0,0c0,8.3,2.9,16.4,8.2,22.9C2.9,245.7,0,253.8,0,262.2l0,0c0,20,16.2,36.2,36.2,36.2l0,0   c11.3,0,22-5.3,28.8-14.3c6.8,9,17.5,14.3,28.8,14.3l0,0c10.9,0,21.2-4.9,28.1-13.3c6.9,8.4,17.2,13.3,28.1,13.3l0,0   c10.9,0,21.2-4.9,28.1-13.3c6.9,8.4,17.2,13.3,28.1,13.3l0,0c11.3,0,22-5.3,28.9-14.3c6.8,9,17.5,14.3,28.8,14.3l0,0   c20,0,36.2-16.2,36.2-36.2l0,0c0-8.3-2.9-16.4-8.2-22.9c5.3-6.5,8.2-14.6,8.2-22.9l0,0c0-8.6-3.1-17-8.7-23.5   c5.6-6.5,8.7-14.9,8.7-23.5l0,0c0-8.1-2.7-16.1-7.8-22.4c5.1-6.4,7.8-14.3,7.8-22.4l0,0c0-7.8-2.5-15.4-7.1-21.6   C297.5,96.6,300,89,300,81.2z"/>
	<ellipse class="st4" cx="250" cy="180.2" rx="11.2" ry="12.6"/>
	<ellipse class="st4" cx="150" cy="248.7" rx="11.2" ry="12.6"/>
	<ellipse class="st4" cx="150" cy="106.9" rx="11.2" ry="12.6"/>
	<ellipse class="st4" cx="50" cy="107.2" rx="11.2" ry="12.6"/>
	<ellipse class="st4" cx="150" cy="180.2" rx="11.2" ry="12.6"/>
	<ellipse class="st4" cx="250" cy="106.9" rx="11.2" ry="12.6"/>
	<ellipse class="st4" cx="50" cy="180.5" rx="11.2" ry="12.6"/>
	<ellipse class="st4" cx="50" cy="249" rx="11.2" ry="12.6"/>
	<ellipse class="st4" cx="250" cy="248.7" rx="11.2" ry="12.6"/>
	<ellipse class="st5" cx="150" cy="242.6" rx="11.2" ry="12.6"/>
	<ellipse class="st5" cx="150" cy="100.8" rx="11.2" ry="12.6"/>
	<ellipse class="st5" cx="50" cy="101.1" rx="11.2" ry="12.6"/>
	<ellipse class="st5" cx="250" cy="100.8" rx="11.2" ry="12.6"/>
	<ellipse class="st5" cx="150" cy="174.1" rx="11.2" ry="12.6"/>
	<ellipse class="st5" cx="250" cy="174.1" rx="11.2" ry="12.6"/>
	<ellipse class="st5" cx="50" cy="174.4" rx="11.2" ry="12.6"/>
	<ellipse class="st5" cx="50" cy="242.9" rx="11.2" ry="12.6"/>
	<ellipse class="st5" cx="250" cy="242.6" rx="11.2" ry="12.6"/>
	<g>
		<path class="st6" d="M275.6,201.4c0.1-0.7,0.1-1.4,0-2.1c0.4-3.4-0.9-6.9-3.7-9.3l-11.4-9.6c-0.1-0.1-0.2-0.2-0.3-0.2l3.3-14.1    c0.2-0.8,0.3-1.7,0.3-2.5c0-0.3,0-0.6-0.1-0.9c0-0.3,0.1-0.5,0.1-0.8c0-0.4,0-0.8-0.1-1.2c0.1-0.4,0.1-0.9,0.1-1.3    c0-0.5-0.1-1.1-0.2-1.7c0.1-0.5,0.2-1.1,0.2-1.7c0-0.3,0-0.6-0.1-0.9c0-0.3,0.1-0.5,0.1-0.8c0-0.4,0-0.8-0.1-1.2    c0.1-0.4,0.1-0.9,0.1-1.3c0-2.8-1.1-5.4-3.1-7.4c-1-1-2.1-1.8-3.4-2.3l4.4-12.5l0.1-0.3c0.3-0.9,0.4-1.8,0.4-2.8    c0-0.4,0-0.8,0-1.2c0-0.2,0-0.3,0-0.4c0-0.5,0-1.1-0.1-1.6c0-0.3,0.1-0.6,0.1-0.9c0-0.7,0-1.3-0.2-1.9c0.1-0.4,0.1-1,0.2-1.4    c0-0.4,0-0.8,0-1.2c0-0.2,0-0.3,0-0.4c0-0.5,0-1.1-0.1-1.6c0-0.3,0.1-0.6,0.1-0.9c0.2-5.7-4.4-10.6-10.1-10.7h-22.6    c-4.4,0-8.4,2.8-9.8,6.9L209,141.6h-5.4c0,0,0,0-0.1,0c-1.7,0-3.3,0.4-4.7,1.1c-1.4-0.8-3.1-1.1-4.8-1.2h-19.4    c-2.5,0-4.9,0.9-6.8,2.5c-4.5-2.6-10.5-4.6-18.5-4.6c-6.7,0-12.9,1.5-18.6,4.1c0.3-1.1,0.4-2.3,0.3-3.4c0.1-0.7,0-1.4-0.1-2.1    c0.1-1,0.1-1.9-0.1-3c0.2-0.9,0.2-1.7,0.1-2.5c0.1-0.7,0-1.4-0.1-2.1c0.4-3-0.5-6.2-2.8-8.5c-4.5-4.7-17.6-15.6-42.3-15.6    c-38.1,0-51.6,21.8-51.6,40.4c0,0.4,0,0.6,0,1c0,0.5,0,1.1,0,1.6c0,0.2,0,0.4,0,0.6c0,0.4,0,0.7,0,1.1c0,0.4,0,1,0.1,1.4    c0,0.6-0.1,1.3-0.1,1.9c0,0.4,0,0.6,0,1c0,0.5,0,1.1,0,1.6c0,0.2,0,0.4,0,0.6c0,0.4,0,0.7,0,1.1c0,2.9,0.4,5.7,1.2,8.4    c-8.9,7.4-11.2,16.6-11.2,24c0,0.4,0,0.7,0,1.1c0,0.5,0,1,0,1.5c0,0.2,0,0.4,0,0.6c0,0.4,0,0.7,0,1.1c0,0.5,0,1.1,0.1,1.6    c0,0.6-0.1,1.2-0.1,1.8c0,0.4,0,0.7,0,1.1c0,0.5,0,1,0,1.5c0,0.2,0,0.4,0,0.6c0,0.4,0,0.7,0,1.1c0,22.9,22.3,37.8,56.9,37.8    c14.4,0,27-2.9,37.5-8.7c6.5,5.6,14.8,8.7,24,8.7c0.4,0,0.6,0,1,0c6.9,0,13.7-1.8,19.6-5.3c5.3,3.4,11.8,5.3,19.2,5.3    c8.3,0,16.4-2.4,23.9-7c5.1,3.9,12.6,7,23.6,7c25.1,0,40-19,44-24.8l0.1-0.1c1.3-2,1.9-4.4,1.8-6.7c0.1-0.7,0.1-1.4,0-2.1    c0.1-1,0.1-2-0.1-3C275.7,203.1,275.7,202.3,275.6,201.4z"/>
		<path class="st7" d="M270.5,193.5l-11.4-9.6c-0.3-0.3-0.6-0.5-1-0.7c-3.8-2.5-8.9-1.3-11.3,2.5c-1.3,2-4.9,6.5-9.9,6.5    c-0.7,0-1.2-0.1-1.6-0.1c0.6-2.8,1.9-6.9,4.2-13.1l0.2-0.5H250l0,0c3.7,0,7-2.5,7.9-6.1l3.3-14.2c0.2-0.6,0.3-1.3,0.3-1.9    c0-0.4,0-0.8-0.1-1.2c0.1-0.4,0.1-0.9,0.1-1.2c0-2.2-0.9-4.2-2.5-5.8c-1.6-1.5-3.6-2.4-5.7-2.4l0,0h-2.1l8.4-23.9l0.1-0.2    c0.3-0.7,0.4-1.5,0.4-2.2c0-0.5,0-1-0.1-1.5c0.1-0.4,0.1-0.7,0.1-1c0.1-4.6-3.4-8.4-8-8.4h-22.6c-3.5,0-6.6,2.2-7.7,5.5    l-11.1,31.6h-6.9c-1.8,0-3.4,0.5-4.7,1.5c-1.3-1-3-1.6-4.8-1.6h-19.6l0,0c-2.5,0-4.8,1.1-6.4,3.1c-5-3.4-11.3-5.2-18.8-5.2    c-23.2,0-41,18.5-42.1,43.4c-3.6,2.8-10.3,6.2-22.1,6.2c-7,0-10.7-1.2-12.6-2.3c1.8-0.8,6.2-1.8,16.1-1.8h8.5l0,0    c4,0,7.4-2.8,8.1-6.8l2.9-15.7c0.1-0.4,0.2-1,0.2-1.4c0-0.4,0-0.9-0.1-1.3c0.1-0.4,0.1-0.8,0.1-1.2c0-2.2-0.8-4.3-2.4-5.8    l-0.1-0.1c2.3,0.1,4.6-0.8,6.2-2.5l14.4-14.9c1.8-1.9,2.6-4.6,2.2-7c0.4-2.5-0.4-5-2.2-6.9c-4.3-4.5-16.9-14.9-40.7-14.9    c-36.4,0-49.4,20.6-49.4,38.2c0,0.4,0,0.9,0,1.3c0,0.4,0,0.8,0,1.2c0,6,1.8,11.4,5.2,16.2c-10.1,5.8-15.2,14.3-15.2,25.5    c0,0.4,0,0.8,0,1.2c0,0.4,0,0.8,0,1.2c0,21.6,21.5,35.6,54.7,35.6c14.7,0,27.3-3.1,37.8-9.2c6.2,6,14.5,9.2,23.7,9.2    c0.4,0,0.6,0,1,0c6.9,0,13.8-2,19.7-5.7c5.1,3.7,11.6,5.6,19.1,5.6c8.3,0,16.5-2.5,24.1-7.5c4.7,4,12.1,7.5,23.4,7.5    c24,0,38.4-18.3,42.3-23.9c1.2-1.8,1.6-3.9,1.3-5.8C273.8,198.3,272.8,195.4,270.5,193.5z M147.9,192.2c-2.1,0-2.9-1.8-3.1-3.7    c0.4-3.3,2.4-6.5,5.1-6.5c2.2,0,2.9,2.3,3.1,3.8C152.5,189,150.5,192.2,147.9,192.2z M197.3,186.4c-2.3,3.1-4.8,5.2-6.7,5.6    c0.6-2.7,2-6.6,3.8-11.6l1.2-3.6c1.1,0.8,2.5,1.3,3.8,1.5C198.6,181,197.9,183.8,197.3,186.4z M91.3,154.3c-4.9,0-7.8-1-9.2-1.8    c1.8-1.2,5.8-1.3,6.5-1.3c4,0.1,7.8,1.1,11.3,3.2H91.3z"/>
		<path class="st8" d="M131.2,192.4c0.7,0.4,0.9,1.4,0.4,2.1c-3,5.2-16,23.8-50.6,23.8c-30.2,0-48.1-11.9-48.1-29    c0-11.6,7-18.9,19.5-23.1c0.9-0.3,1.3-1.2,1.1-2c-0.1-0.4-0.4-0.6-0.6-0.8c-6.7-4.7-9.8-11-9.8-18.1c0-15.2,11.2-31.7,42.8-31.7    c21.7,0,32.7,9.5,36,12.9c0.6,0.6,0.6,1.7,0,2.3l-14.5,14.9c-0.5,0.5-1.4,0.7-2.1,0.3c-4.9-3.3-10.6-5.1-16.5-5.3    c-10.6,0-14.1,4.7-14.1,9.3c0,5,4.8,9.5,16.6,9.5h8.8c0.9,0,1.7,0.7,1.7,1.7c0,0.1,0,0.2,0,0.3l-2.9,15.7    c-0.2,0.8-0.8,1.3-1.6,1.3h-8.5c-15.7,0-24.1,2.2-24.1,9.6c0,6.2,7.7,10,20.5,10c20.3,0,28.4-9,30.9-12.5c0.5-0.7,1.5-0.9,2.3-0.4    l0,0L131.2,192.4z"/>
		<path class="st8" d="M217.3,195.2c0.6,0.5,0.8,1.5,0.3,2.2c-3.3,4.7-15.9,21-35.3,21c-7.6,0-13.5-2.3-17.7-6.5    c-0.6-0.6-1.5-0.6-2.2-0.2c-5.6,4.5-12.7,6.9-19.8,6.6c-17.5,0-29-13.9-29-32.3c0-21.3,14.1-39.5,35.6-39.5c8.8,0,14.9,2.8,19,7.6    c0.6,0.7,1.6,0.7,2.3,0.2c0.2-0.2,0.3-0.4,0.4-0.5l2-4.1c0.3-0.5,0.9-0.9,1.5-0.9H194c0.9,0,1.7,0.7,1.7,1.7c0,0.2,0,0.4-0.1,0.5    l-6.9,20c-3.3,9.3-5.2,14.3-5.2,18.4c0,3.8,2.1,6.2,6.3,6.2c6.2,0,11.4-6.5,13.5-9.5c0.5-0.8,1.5-1,2.3-0.4c0.1,0,0.1,0.1,0.2,0.1    L217.3,195.2z M159.6,181.2c0-7-4.1-11.6-9.8-11.6c-7,0-11.8,7-11.8,14.2s4,11.6,9.8,11.6C154.8,195.4,159.6,188.3,159.6,181.2z"/>
		<path class="st8" d="M266.3,195.2c0.6,0.5,0.8,1.5,0.4,2.2c-3.3,4.7-15.9,21-36.8,21c-17.8,0-27.2-10-27.2-25.7    c0-6.2,2.5-14.9,6.3-25.8l0.3-0.9h-8.9c-0.9,0-1.7-0.7-1.7-1.6c0-0.1,0-0.3,0.1-0.4l3.3-14c0.2-0.7,0.9-1.2,1.6-1.2h10.6    c0.7,0,1.3-0.4,1.5-1.1l12.3-35.2c0.3-0.6,0.9-1.1,1.6-1.1h22.3c0.9,0,1.6,0.8,1.6,1.7c0,0.2,0,0.3-0.1,0.4l-11.5,33    c-0.3,0.9,0.2,1.8,1,2.1c0.2,0.1,0.4,0.1,0.5,0.1h10c0.9,0,1.7,0.7,1.7,1.6c0,0.1,0,0.3-0.1,0.4l-3.3,14c-0.2,0.7-0.9,1.2-1.6,1.2    h-13.9c-0.7,0-1.3,0.4-1.6,1.1l-1.3,3.8c-3.3,9.2-4.8,14.1-4.8,17.8s2.3,6.8,8.4,6.8c8.1,0,13.4-6.4,15.4-9.5    c0.4-0.8,1.5-1,2.2-0.5c0.1,0.1,0.2,0.1,0.2,0.2L266.3,195.2z"/>
		<ellipse class="st9" cx="86.3" cy="121.8" rx="12" ry="5.5"/>
		<circle class="st9" cx="107.4" cy="125.8" r="4.4"/>
		
			<ellipse transform="matrix(0.8725 -0.4886 0.4886 0.8725 -61.1976 86.3777)" class="st9" cx="134.9" cy="160.5" rx="12" ry="5.5"/>
		<circle class="st9" cx="155.2" cy="153.7" r="4.4"/>
		<ellipse transform="matrix(0.2967 -0.955 0.955 0.2967 48.8669 318.6237)" class="st9" cx="240.8" cy="126.1" rx="12" ry="5.5"/>
		<circle class="st9" cx="246.3" cy="156.8" r="4.4"/>
		<circle class="st9" cx="256.8" cy="195.4" r="4.4"/>
	</g>
</g>
</svg>