<svg id="Layer_1" data-name="Layer 1" xmlns="http://www.w3.org/2000/svg" xmlns:xlink="http://www.w3.org/1999/xlink" viewBox="0 0 300 345"><defs><style>.cls-1{fill:url(#linear-gradient);}.cls-2{fill:#ffcd05;}.cls-3{fill:#e3a441;}.cls-4{fill:url(#radial-gradient);}.cls-5{fill:#fabc2e;}.cls-10,.cls-6,.cls-7{fill:none;stroke-miterlimit:10;}.cls-6{stroke:#e3a441;}.cls-6,.cls-7{stroke-width:5px;}.cls-7{stroke:#81a03d;}.cls-8{fill:#a7d054;}.cls-9{fill:#81a03d;}.cls-10{stroke:#cd8e2a;stroke-width:8.99px;}.cls-11{fill:#fff;}.cls-12{fill:#4cc9f5;}.cls-13{fill:#fff0a4;}.cls-14{fill:#f4d98d;}</style><linearGradient id="linear-gradient" x1="150" y1="356.11" x2="150" y2="161.16" gradientUnits="userSpaceOnUse"><stop offset="0" stop-color="#fabc2e"/><stop offset="1" stop-color="#cd8029"/></linearGradient><radialGradient id="radial-gradient" cx="55.1" cy="303.51" r="48.77" gradientUnits="userSpaceOnUse"><stop offset="0" stop-color="#f6a9cb"/><stop offset="1" stop-color="#f3c1da" stop-opacity="0"/></radialGradient></defs><title>blook_elf</title><g id="medieval_fantasy" data-name="medieval fantasy"><path class="cls-1" d="M263.62,345H36.38A36.38,36.38,0,0,1,0,308.62V259.14H300v49.48A36.38,36.38,0,0,1,263.62,345Z"/><rect class="cls-2" y="45" width="300" height="253.39" rx="36.38"/><path class="cls-3" d="M263.62,298.39H196.2a70.79,70.79,0,0,0-6.4,29.47V345h69.71A40.49,40.49,0,0,0,300,304.51V262A36.38,36.38,0,0,1,263.62,298.39Z"/><path class="cls-4" d="M0,262v42.5A40.49,40.49,0,0,0,40.49,345H110.2V327.86a70.79,70.79,0,0,0-6.4-29.47H36.38A36.38,36.38,0,0,1,0,262Z"/><path class="cls-5" d="M196.2,298.39h67.42A36.38,36.38,0,0,0,300,262v-5.25H260.9A71.1,71.1,0,0,0,196.2,298.39Z"/><path class="cls-5" d="M39.1,256.76H0V262a36.38,36.38,0,0,0,36.38,36.38H103.8A71.1,71.1,0,0,0,39.1,256.76Z"/><path class="cls-6" d="M81.11,313.91s26.36,11.78,68.89,11.78,69.28-11.78,69.28-11.78"/><path class="cls-7" d="M81.11,304.91s26.36,11.78,68.89,11.78,69.28-11.78,69.28-11.78"/><path class="cls-8" d="M201,345h62.64A36.38,36.38,0,0,0,300,308.62V265.71H264.87A63.89,63.89,0,0,0,201,329.6Z"/><path class="cls-8" d="M99,345H36.38A36.38,36.38,0,0,1,0,308.62V265.71H35.13A63.89,63.89,0,0,1,99,329.6Z"/><path class="cls-9" d="M211.26,343.34V345h5v-1.66A61.46,61.46,0,0,1,277.65,282H300v-5H277.65A66.46,66.46,0,0,0,211.26,343.34Z"/><path class="cls-9" d="M22.35,277H0v5H22.35a61.46,61.46,0,0,1,61.39,61.39V345h5v-1.66A66.46,66.46,0,0,0,22.35,277Z"/><line class="cls-10" x1="126.25" y1="259.14" x2="173.75" y2="259.14"/><circle class="cls-5" cx="242.58" cy="194.88" r="36.45"/><circle class="cls-5" cx="57.42" cy="194.88" r="36.45"/><circle class="cls-11" cx="242.58" cy="205" r="36.45"/><circle class="cls-11" cx="57.42" cy="205" r="36.45"/><path class="cls-12" d="M89.18,199.71A13.21,13.21,0,0,1,70,181.8a23,23,0,1,0,19.19,17.91Zm-32,19.75A5.45,5.45,0,1,1,62.59,214,5.45,5.45,0,0,1,57.14,219.46Z"/><path class="cls-12" d="M255.63,199.58a13.22,13.22,0,0,1-19.07-17.77,23,23,0,1,0,19.07,17.77Zm-32.22,19.88a5.45,5.45,0,1,1,5.46-5.45A5.45,5.45,0,0,1,223.41,219.46Z"/><path class="cls-5" d="M263.62,45H36.38A36.38,36.38,0,0,0,0,81.38v45.37a159.62,159.62,0,0,0,35.09,3.86c42.36,0,79.8,6.07,102.43-10.91.33-.25.68-.48,1-.71,2.41,11.21,10.65,29.3,38.09,41.63,0,0-18.42-18.26-20.49-44.14a20.6,20.6,0,0,1,6.33,3.22c22.63,17,60.07,10.91,102.43,10.91A159.62,159.62,0,0,0,300,126.75V81.38A36.38,36.38,0,0,0,263.62,45Z"/><path class="cls-13" d="M263.62,45H36.38A36.38,36.38,0,0,0,0,81.38v45.37a159.62,159.62,0,0,0,35.09,3.86c51.51,0,95.74-9.75,114.91-44.14,0,0-8,48,34.37,67,0,0-21.16-21-20.66-49.82,22.74,20.57,59.59,26.94,101.2,26.94A159.62,159.62,0,0,0,300,126.75V81.38A36.38,36.38,0,0,0,263.62,45Z"/><path class="cls-14" d="M161.73,65.54a56.43,56.43,0,0,0,6.21,7.85,92.77,92.77,0,0,0,7,6.85,120.32,120.32,0,0,0,15.78,11.5c1.39.85,2.77,1.73,4.18,2.56l4.31,2.36,2.15,1.21L203.62,99c1.47.73,2.94,1.49,4.41,2.25,3,1.44,6,2.78,9,4.3,3.06,1.34,6.15,2.67,9.2,4.28-3.39-.32-6.75-.91-10.13-1.48-3.3-.83-6.62-1.67-9.88-2.73q-2.42-.87-4.82-1.8l-2.4-.93-2.34-1.1-4.64-2.28c-1.5-.85-3-1.76-4.46-2.64a71.13,71.13,0,0,1-15.94-13.27,54.17,54.17,0,0,1-6.08-8.45A32.07,32.07,0,0,1,161.73,65.54Z"/><path class="cls-14" d="M164.45,57.41c4.89,1.82,9.62,3.48,14.37,5.05s9.46,3.05,14.24,4.34,9.57,2.57,14.46,3.62c2.43.63,4.9,1.06,7.37,1.66s5,1,7.52,1.78c-1.27.3-2.55.51-3.84.71a34.19,34.19,0,0,1-3.88.46,61.69,61.69,0,0,1-7.81.06,70.12,70.12,0,0,1-15.42-2.51,69.25,69.25,0,0,1-14.52-5.81A46.68,46.68,0,0,1,164.45,57.41Z"/><path class="cls-14" d="M149.05,65.64a56.11,56.11,0,0,1-11.91,16,81.37,81.37,0,0,1-16,12.12c-.72.45-1.47.83-2.21,1.21l-2.24,1.16-2.25,1.13c-.75.37-1.54.68-2.31,1-1.56.63-3.1,1.28-4.66,1.88s-3.2,1-4.8,1.52A42,42,0,0,1,97.79,103c-1.64.35-3.27.67-4.91,1l-1.23.21-1.24.13c-.84.09-1.66.19-2.49.24-1.66.13-3.32.26-5,.3,1.53-.7,3.06-1.32,4.59-1.92s3.09-1.07,4.56-1.8c3-1.34,6-2.39,8.91-3.83l4.39-2c1.42-.74,2.86-1.44,4.29-2.16.7-.36,1.44-.67,2.14-1.06l2.09-1.16c1.39-.78,2.83-1.46,4.18-2.31a167.44,167.44,0,0,0,16-10.5A158,158,0,0,0,149.05,65.64Z"/><path class="cls-14" d="M135.77,59.22a68.54,68.54,0,0,1-7.33,7.13c-2.59,2.21-5.31,4.26-8.1,6.21a115.55,115.55,0,0,1-17.81,10.08A97.15,97.15,0,0,1,83,89.09c-1.69.31-3.38.61-5.07.88s-3.43.34-5.13.5a39.9,39.9,0,0,1-5.13.11c-1.72-.07-3.42-.16-5.11-.32,6.61-1.79,13-3.49,19.18-5.72s12.3-4.63,18.3-7.37,11.93-5.61,17.85-8.64S129.72,62.37,135.77,59.22Z"/><path class="cls-2" d="M300,131.07V0s-51.63,25.11-51.63,131.07"/><path class="cls-5" d="M283.78,50.17s15.54,22.55-9.59,80.18C274.19,130.35,267.55,91.67,283.78,50.17Z"/><path class="cls-3" d="M294.34,16.66c-1.27,5-2.67,9.87-4.09,14.74s-2.87,9.72-4.31,14.56-2.85,9.68-4.11,14.56-2.4,9.79-3.44,14.7a205.88,205.88,0,0,0-4.12,29.71,114.8,114.8,0,0,0,0,14.84,79.92,79.92,0,0,0,2.27,14.5v0a2.5,2.5,0,0,1-4.8,1.42,73.55,73.55,0,0,1-3.15-15.46c-.29-2.61-.37-5.22-.48-7.83s0-5.21.14-7.8a142.46,142.46,0,0,1,1.53-15.46Q271,81.52,272.7,74a275.34,275.34,0,0,1,8.58-29.55c1.72-4.83,3.61-9.59,5.78-14.23A109.06,109.06,0,0,1,294.34,16.66Z"/><path class="cls-3" d="M285.35,45.1c.43.72.73,1.28,1,1.91s.6,1.24.87,1.86.52,1.25.76,1.88.49,1.26.68,1.91l.61,1.92c.2.64.35,1.29.52,1.94.35,1.3.6,2.61.83,3.92a68.84,68.84,0,0,1,.9,15.88,70.93,70.93,0,0,1-.93,7.85c-.24,1.29-.38,2.6-.71,3.88s-.61,2.55-.94,3.81c-.17.64-.31,1.28-.52,1.89l-.67,1.85c-.44,1.23-.9,2.45-1.39,3.66a61.83,61.83,0,0,1-3.69,6.91c.29-2.64.84-5.13,1.33-7.63.34-2.54,1-5,1.31-7.48.18-1.25.39-2.48.59-3.72s.27-2.49.42-3.73c.31-2.48.31-5,.43-7.46a80.57,80.57,0,0,0-1.32-14.74c-.23-1.2-.47-2.41-.8-3.59-.16-.59-.28-1.19-.45-1.77l-.54-1.75c-.16-.59-.38-1.16-.58-1.73s-.39-1.15-.62-1.7-.45-1.12-.69-1.66-.51-1.11-.72-1.5l-.08-.16a2.5,2.5,0,0,1,4.35-2.45Z"/><path class="cls-2" d="M0,131.07V0S51.63,25.11,51.63,131.07"/><path class="cls-5" d="M16.22,50.17S.68,72.72,25.81,130.35C25.81,130.35,32.45,91.67,16.22,50.17Z"/><path class="cls-3" d="M5.66,16.66a109.06,109.06,0,0,1,7.28,13.55c2.17,4.64,4.06,9.4,5.78,14.23A275.34,275.34,0,0,1,27.3,74Q29,81.51,30.17,89.17a142.46,142.46,0,0,1,1.53,15.46c.15,2.59.14,5.19.14,7.8s-.19,5.22-.48,7.83a73.55,73.55,0,0,1-3.15,15.46,2.5,2.5,0,0,1-4.8-1.41v0a79.92,79.92,0,0,0,2.27-14.5,114.8,114.8,0,0,0,0-14.84,205.88,205.88,0,0,0-4.12-29.71q-1.56-7.36-3.44-14.7C16.91,55.64,15.51,50.8,14.06,46S11.15,36.28,9.75,31.4,6.93,21.64,5.66,16.66Z"/><path class="cls-3" d="M18.92,47.71c-.21.39-.49,1-.72,1.5s-.46,1.1-.69,1.66-.42,1.13-.62,1.7-.42,1.14-.58,1.73l-.54,1.75c-.17.58-.29,1.18-.45,1.77-.33,1.18-.57,2.39-.8,3.59A80.57,80.57,0,0,0,13.2,76.15c.12,2.48.12,5,.43,7.46.15,1.24.19,2.5.42,3.73s.41,2.47.59,3.72c.33,2.5,1,4.94,1.31,7.48.49,2.5,1,5,1.33,7.63a61.83,61.83,0,0,1-3.69-6.91c-.49-1.21-.95-2.43-1.39-3.66l-.67-1.85c-.21-.61-.35-1.25-.52-1.89-.33-1.26-.64-2.54-.94-3.81s-.47-2.59-.71-3.88a70.93,70.93,0,0,1-.93-7.85,68.84,68.84,0,0,1,.9-15.88c.23-1.31.48-2.62.83-3.92.17-.65.32-1.3.52-1.94l.61-1.92c.19-.65.43-1.28.68-1.91s.47-1.26.76-1.88.54-1.24.87-1.86.62-1.19,1.05-1.91A2.5,2.5,0,0,1,19,47.54Z"/><ellipse class="cls-13" cx="242.34" cy="143.75" rx="29.61" ry="17.17" transform="translate(-20.67 42.67) rotate(-9.65)"/><ellipse class="cls-13" cx="57.66" cy="143.71" rx="17.17" ry="29.61" transform="translate(-93.69 176.46) rotate(-80.35)"/></g></svg>