<svg id="Layer_1" data-name="Layer 1" xmlns="http://www.w3.org/2000/svg" xmlns:xlink="http://www.w3.org/1999/xlink" viewBox="0 0 300 345"><defs><style>.cls-1{fill:#d49d7e;}.cls-2{fill-opacity:0.8;fill:url(#linear-gradient);}.cls-3{fill:#0fafd2;fill-opacity:0.5;}.cls-4{fill:#dcbf9a;}.cls-5{fill:url(#radial-gradient);}.cls-6{fill:#fef3f7;}.cls-7{fill:url(#radial-gradient-2);}</style><linearGradient id="linear-gradient" x1="149.67" y1="-22.41" x2="150.74" y2="749.08" gradientUnits="userSpaceOnUse"><stop offset="0.19" stop-color="#c7eaf7"/><stop offset="0.63" stop-color="#0fafd2"/></linearGradient><radialGradient id="radial-gradient" cx="150" cy="201.61" r="104.79" gradientUnits="userSpaceOnUse"><stop offset="0.52" stop-color="#f3c1da"/><stop offset="1" stop-color="#f3c1da" stop-opacity="0"/></radialGradient><radialGradient id="radial-gradient-2" cx="150" cy="201.61" r="61.69" gradientUnits="userSpaceOnUse"><stop offset="0.52" stop-color="#c62c6b"/><stop offset="1" stop-color="#f3c1da" stop-opacity="0"/></radialGradient></defs><title>blook_fairy</title><g id="medieval_fantasy" data-name="medieval fantasy"><path class="cls-1" d="M220.78,40.81H75.6c-12.84,0-23.25,5.74-23.25,12.83V71.15C52.35,78.23,62.76,84,75.6,84H220.78C233.62,84,244,78.23,244,71.15V53.64C244,46.55,233.62,40.81,220.78,40.81Z"/><path class="cls-2" d="M275.25,90.13V79.6a36.38,36.38,0,0,0-36.38-36.38H61.13A36.38,36.38,0,0,0,24.75,79.6V90.13A36.4,36.4,0,0,0,0,124.6v184A36.38,36.38,0,0,0,36.38,345H263.62A36.38,36.38,0,0,0,300,308.62v-184A36.4,36.4,0,0,0,275.25,90.13Z"/><path class="cls-3" d="M247.93,288.05H48.44c-17.64,0-31.93,8.69-31.93,19.41v3.7c0,10.72,14.29,19.42,31.93,19.42H247.93c17.64,0,31.94-8.7,31.94-19.42v-3.7C279.87,296.74,265.57,288.05,247.93,288.05Z"/><path class="cls-1" d="M220.78,23.38H75.6c-12.84,0-23.25,5.74-23.25,12.82V53.72c0,7.08,10.41,12.82,23.25,12.82H220.78c12.84,0,23.25-5.74,23.25-12.82V36.2C244,29.12,233.62,23.38,220.78,23.38Z"/><path class="cls-4" d="M220.78,18.44H75.6c-12.84,0-23.25,5.75-23.25,12.83v2.45c0,7.08,10.41,12.82,23.25,12.82H220.78c12.84,0,23.25-5.74,23.25-12.82V31.27C244,24.19,233.62,18.44,220.78,18.44Z"/><circle class="cls-5" cx="150" cy="201.61" r="104.79"/><path class="cls-6" d="M147.13,201.54s38.71-52.3,109.89-84c0,0-13.55,58.69-43.78,74.46C192.07,203.08,147.13,201.54,147.13,201.54Z"/><path class="cls-6" d="M152.87,201.54s-38.71-52.3-109.89-84c0,0,13.55,58.69,43.78,74.46C107.93,203.08,152.87,201.54,152.87,201.54Z"/><path class="cls-6" d="M163.13,204.66s43.24-1.36,63.62,50.94C226.75,255.6,154.3,271.9,163.13,204.66Z"/><path class="cls-6" d="M136.87,204.66S93.63,203.3,73.25,255.6C73.25,255.6,145.7,271.9,136.87,204.66Z"/><circle class="cls-7" cx="150" cy="201.61" r="61.69"/><circle class="cls-6" cx="150" cy="201.61" r="39.54"/></g></svg>