<svg id="Layer_1" data-name="Layer 1" xmlns="http://www.w3.org/2000/svg" xmlns:xlink="http://www.w3.org/1999/xlink" viewBox="0 0 300 345"><defs><style>.cls-1{fill:url(#linear-gradient);}.cls-2{fill:url(#linear-gradient-2);}.cls-3{fill:#ffcd05;}.cls-4{fill:#f4fbfe;}.cls-5{fill:#680e19;}.cls-6{fill:#c62639;}.cls-7{fill:#fabc2e;}.cls-8{fill:#fff;}.cls-9{fill:#414042;}.cls-10{fill:#8b5e3c;}.cls-11,.cls-12{fill:#66402d;}.cls-12{fill-opacity:0.25;}.cls-13{fill:#0fafd2;}.cls-14{fill:#04859b;}.cls-15{fill:#39b54a;}.cls-16{fill:#009444;}.cls-17{fill:#be1e2d;}.cls-18{fill:#9a1c25;}.cls-19{fill:#f9ed32;}</style><linearGradient id="linear-gradient" x1="150" y1="356.11" x2="150" y2="161.16" gradientUnits="userSpaceOnUse"><stop offset="0" stop-color="#ed1c24"/><stop offset="0.34" stop-color="#9a1c25"/></linearGradient><linearGradient id="linear-gradient-2" x1="150.28" y1="338.24" x2="149.24" y2="191.81" gradientUnits="userSpaceOnUse"><stop offset="0" stop-color="#fabc2e"/><stop offset="1" stop-color="#cd8029"/></linearGradient></defs><title>blook_jester</title><g id="medieval_fantasy" data-name="medieval fantasy"><path class="cls-1" d="M263.62,345H36.38A36.38,36.38,0,0,1,0,308.62V259.14H300v49.48A36.38,36.38,0,0,1,263.62,345Z"/><path class="cls-2" d="M150,335c-35.63,0-36.38-36.61-36.38-36.61h72.76S185.63,335,150,335Z"/><rect class="cls-3" y="45" width="300" height="253.39" rx="36.38"/><path class="cls-4" d="M120.78,225S109.13,282,150,282s29.22-57,29.22-57Z"/><path class="cls-5" d="M119.25,241.45C119.14,258.3,123.66,282,150,282s30.86-23.71,30.75-40.56c0,0-7.05,2.94-30.75,2.94S119.25,241.45,119.25,241.45Z"/><ellipse class="cls-6" cx="150" cy="271.25" rx="23.26" ry="10.76"/><circle class="cls-7" cx="242.58" cy="189.94" r="36.45"/><circle class="cls-7" cx="57.42" cy="189.94" r="36.45"/><path class="cls-8" d="M279,200.06c0,20.13-16.32,28.37-36.45,28.37s-36.45-8.24-36.45-28.37a36.45,36.45,0,1,1,72.9,0Z"/><path class="cls-8" d="M93.87,200.06c0,20.13-16.32,28.37-36.45,28.37S21,220.19,21,200.06a36.45,36.45,0,0,1,72.9,0Z"/><path class="cls-9" d="M74.11,189.83a13.21,13.21,0,0,1-19.2-17.9,22.92,22.92,0,1,0,19.7,22.69A23.66,23.66,0,0,0,74.11,189.83Zm-32,19.76a5.45,5.45,0,1,1,5.45-5.45A5.46,5.46,0,0,1,42.06,209.59Z"/><path class="cls-9" d="M272.54,193.76A13.22,13.22,0,0,1,253.46,176a22.66,22.66,0,0,0-3.32-.24,22.93,22.93,0,1,0,22.93,22.93A23.56,23.56,0,0,0,272.54,193.76Zm-32.22,19.89a5.45,5.45,0,1,1,5.45-5.45A5.45,5.45,0,0,1,240.32,213.65Z"/><path class="cls-7" d="M263.62,54H36.38A36.38,36.38,0,0,0,0,90.38v40.07s9.7,10.44,99.21,13.39l10.18-13,10.44,13.51,9,.13,7.47-13.64,7.51,13.75H150c136.87,0,150-14.15,150-14.15V90.38A36.38,36.38,0,0,0,263.62,54Z"/><path class="cls-10" d="M263.62,45H36.38A36.38,36.38,0,0,0,0,81.38v40.07s9.7,10.44,99.21,13.39l10.18-20.67,10.44,21.18,9,.13,7.47-21.31,7.51,21.42H150c136.87,0,150-14.15,150-14.15V81.38A36.38,36.38,0,0,0,263.62,45Z"/><ellipse class="cls-11" cx="61.19" cy="121.45" rx="29.61" ry="17.17"/><ellipse class="cls-11" cx="244.81" cy="121.45" rx="29.61" ry="17.17"/><ellipse class="cls-12" cx="180.41" cy="88.26" rx="20.43" ry="61.8" transform="translate(85.94 265.49) rotate(-88.01)"/><path class="cls-13" d="M153.26,83.92S146.08.86,185.14,3.21s21.94,84,21.94,84Z"/><path class="cls-14" d="M161,79.13s-4.61-53.5,24-52.28,15.42,54,15.42,54Z"/><path class="cls-15" d="M133.51,80.85l.75-12.45a22.15,22.15,0,0,0-6.07-16.88c-3-3.1-11.64-5.94-18.33-6.35-11.59-.7-18.29,8.88-18.29,8.88s.58-9.84,19.78-25.76c28.82-23.88,72.44-2.81,68.82,57.25"/><path class="cls-16" d="M109.86,45.17c6.69.41,15.29,3.25,18.33,6.35a22.15,22.15,0,0,1,6.07,16.88l-.75,12.45,24.05,2.42,3.87-2.42s-2.06-41.11-27-46.78-42.9,20-42.9,20S98.27,44.47,109.86,45.17Z"/><path class="cls-17" d="M227.05,86.49,227.8,74a22.11,22.11,0,0,1,8.06-16c3.39-2.71,12.27-4.51,19-4.1,11.59.7,17.09,11,17.09,11s-1-11.5-16.55-28c-25.73-27.17-71.58-11.5-75.2,48.56"/><path class="cls-18" d="M271.91,64.93a15.81,15.81,0,0,0-.42-2.15s-16-31.8-48.16-18.07C202,53.81,200.58,77,199.77,85.94l27.28.55L227.8,74a22.11,22.11,0,0,1,8.06-16c3.39-2.71,12.27-4.51,19-4.1C266.41,54.62,271.91,64.93,271.91,64.93Z"/><path class="cls-19" d="M220.3,80.78l-6.16-7.84a1.94,1.94,0,0,0-3.22.24l-5.11,9a1.94,1.94,0,0,1-3.29.15l-5.48-8a1.94,1.94,0,0,0-3.2,0l-4.33,6.31a2,2,0,0,1-3.32-.19l-3.65-6.87a2,2,0,0,0-3.31-.2l-4.45,6.39a1.94,1.94,0,0,1-3.31-.22l-3.54-6.79a1.94,1.94,0,0,0-3.18-.39l-6.4,7.24a1.94,1.94,0,0,1-3.24-.54l-4-9.54A1.94,1.94,0,0,0,148,69l-7.06,7a1.94,1.94,0,0,1-3.06-.41l-2.41-4.2a1.94,1.94,0,0,0-3.62,1.13L133,86.25s13.14,9.31,46.49,11.32S227,91.92,227,91.92l2.8-13.52a1.94,1.94,0,0,0-3.46-1.56l-2.91,3.9A1.93,1.93,0,0,1,220.3,80.78Z"/><circle class="cls-19" cx="91.6" cy="57.37" r="10.26"/><circle class="cls-19" cx="271.49" cy="68.22" r="10.26"/></g></svg>