<svg id="Layer_1" data-name="Layer 1" xmlns="http://www.w3.org/2000/svg" xmlns:xlink="http://www.w3.org/1999/xlink" viewBox="0 0 300 345"><defs><style>.cls-1{fill:url(#linear-gradient);}.cls-2{fill:url(#linear-gradient-2);}.cls-3{fill:url(#linear-gradient-3);}.cls-4{fill:url(#linear-gradient-4);}.cls-5{fill:#ffcd05;}.cls-6{fill:#fabc2e;}.cls-7{fill:#92a1ad;}.cls-8{fill:url(#linear-gradient-5);}.cls-9{fill:url(#linear-gradient-6);}.cls-10{fill:#c7eaf7;}.cls-11{fill:#58595b;}.cls-12{fill:#2f2c38;}.cls-13{fill:#cd8e2a;}.cls-14{fill:#fff;}.cls-15{fill:#416eb5;}.cls-16{fill:#61727c;}.cls-17{opacity:0.25;}.cls-18{fill:#bb2134;}.cls-19{fill:#f6871f;}.cls-20{fill:#eb7123;}.cls-21{fill:#ee2640;}.cls-22{fill:#9e1f63;}.cls-23{fill:#ba2e7e;}.cls-24{fill:#f4fbfe;}</style><linearGradient id="linear-gradient" x1="150" y1="356.11" x2="150" y2="240.41" gradientUnits="userSpaceOnUse"><stop offset="0.24" stop-color="#fabc2e"/><stop offset="1" stop-color="#cd8029"/></linearGradient><linearGradient id="linear-gradient-2" x1="0.03" y1="310.88" x2="0.03" y2="303.12" gradientUnits="userSpaceOnUse"><stop offset="0" stop-color="#ed1c24"/><stop offset="0.34" stop-color="#9a1c25"/></linearGradient><linearGradient id="linear-gradient-3" x1="150" y1="349.45" x2="150" y2="216.02" xlink:href="#linear-gradient-2"/><linearGradient id="linear-gradient-4" x1="299.97" y1="310.88" x2="299.97" y2="303.12" xlink:href="#linear-gradient-2"/><linearGradient id="linear-gradient-5" x1="241.59" y1="351.5" x2="240.99" y2="175.5" gradientUnits="userSpaceOnUse"><stop offset="0" stop-color="#c7eaf7"/><stop offset="0.69" stop-color="#6eb8cc"/></linearGradient><linearGradient id="linear-gradient-6" x1="58.49" y1="371.98" x2="58.8" y2="164.53" xlink:href="#linear-gradient-5"/></defs><title>blook_king</title><g id="medieval_fantasy" data-name="medieval fantasy"><path class="cls-1" d="M263.62,345H36.38A36.38,36.38,0,0,1,0,308.62V259.14H300v49.48A36.38,36.38,0,0,1,263.62,345Z"/><path class="cls-2" d="M0,310.62H.06c0-.66-.06-1.33-.06-2Z"/><path class="cls-3" d="M150,335.52l-15.63-24.9H.06A36.37,36.37,0,0,0,36.38,345H263.62a36.37,36.37,0,0,0,36.32-34.38H165.63Z"/><path class="cls-4" d="M300,308.62c0,.67,0,1.34-.06,2H300Z"/><rect class="cls-5" y="45" width="300" height="253.39" rx="36.38"/><path class="cls-6" d="M105.68,81.43s12.91,8.06,44.44,8.06,44.43-8.06,44.43-8.06v14.8s-12.9,8.06-44.43,8.06-44.44-8.06-44.44-8.06Z"/><path class="cls-6" d="M263.62,54H36.38A36.38,36.38,0,0,0,0,90.38V132a159,159,0,0,0,35.09,3.87C86.6,135.84,130.83,117,150,82.56c19.17,34.4,63.4,53.28,114.91,53.28A159,159,0,0,0,300,132V90.38A36.38,36.38,0,0,0,263.62,54Z"/><path class="cls-7" d="M263.62,45H36.38A36.38,36.38,0,0,0,0,81.38V123a159,159,0,0,0,35.09,3.87C86.6,126.84,130.83,108,150,73.56c19.17,34.4,63.4,53.28,114.91,53.28A159,159,0,0,0,300,123V81.38A36.38,36.38,0,0,0,263.62,45Z"/><path class="cls-8" d="M263.62,345H182.79c0-8,8.46-5.33,8.46-5.33-3.62-9.66,8.15-10.56,8.15-10.56,0-10.27,8.62-10.57,8.62-10.57-5.86-6,4.06-11.18,4.06-11.18-6.45-13.55,7.09-13.54,7.09-13.54-2.9-11.39,8.61-10,8.61-10,1.73-10.57,11.77-6.71,11.77-6.71,2.41-13.26,13.89-7.86,13.89-7.86,1.88-14.11,12.37-8.23,12.37-8.23,2.87-13.75,16-6.88,16-6.88,5.32-15.42,18.19-8.06,18.19-8.06v62.53A36.38,36.38,0,0,1,263.62,345Z"/><path class="cls-9" d="M36.38,345h80.83c0-8-8.46-5.33-8.46-5.33,3.62-9.66-8.15-10.56-8.15-10.56,0-10.27-8.62-10.57-8.62-10.57,5.86-6-4.06-11.18-4.06-11.18,6.45-13.55-7.09-13.54-7.09-13.54,2.9-11.39-8.61-10-8.61-10-1.73-10.57-11.77-6.71-11.77-6.71-2.41-13.26-13.89-7.86-13.89-7.86C44.68,255.15,34.19,261,34.19,261c-2.87-13.75-16-6.88-16-6.88C12.87,238.73,0,246.09,0,246.09v62.53A36.38,36.38,0,0,0,36.38,345Z"/><path class="cls-6" d="M89.52,292.59C92.73,278.16,80,279.93,80,279.93c-1.93-13.4-13-8.51-13-8.51-2.68-16.8-15.38-9.95-15.38-9.95C49.48,243.57,37.86,251,37.86,251c-3.18-17.44-17.72-8.72-17.72-8.72C14.25,222.77,0,232.09,0,232.09v20.19c0,25.47,18,46.11,40.29,46.11h58.5C96.79,292.6,89.52,292.59,89.52,292.59Z"/><path class="cls-6" d="M279.24,242.32s-15-8.72-18.26,8.72c0,0-12-7.47-14.13,10.43,0,0-13.09-6.85-15.85,9.95,0,0-11.45-4.89-13.44,8.51,0,0-13.13-1.77-9.82,12.66,0,0-7.49,0-9.55,5.8h60.29c22.93,0,41.52-20.64,41.52-46.11V232.09S285.32,222.77,279.24,242.32Z"/><path class="cls-10" d="M80.83,293.82c2.9-11.39-8.61-10-8.61-10-1.73-10.57-11.77-6.71-11.77-6.71-2.41-13.26-13.89-7.86-13.89-7.86C44.68,255.15,34.19,261,34.19,261c-2.87-13.75-16-6.88-16-6.88C12.87,238.73,0,246.09,0,246.09V262a36.37,36.37,0,0,0,36.38,36.37H89.2C87.39,293.82,80.83,293.82,80.83,293.82Z"/><path class="cls-10" d="M281.81,254.15s-13.13-6.87-16,6.88c0,0-10.49-5.88-12.37,8.23,0,0-11.48-5.4-13.89,7.86,0,0-10-3.86-11.77,6.71,0,0-11.51-1.4-8.61,10,0,0-6.56,0-8.37,4.57h52.82A36.38,36.38,0,0,0,300,262V246.09S287.13,238.73,281.81,254.15Z"/><path class="cls-11" d="M13.39,261.05s5.39-.38,8.86,2.65c1.6,1.4,3.8,3.76,1.49,6.4s-4.94.78-6.54-.62C13.73,266.45,13.39,261.05,13.39,261.05Z"/><path class="cls-11" d="M42.74,274s5.32-1,9.11,1.65c1.74,1.21,4.18,3.31,2.19,6.19s-4.83,1.32-6.57.11C43.69,279.28,42.74,274,42.74,274Z"/><path class="cls-11" d="M23.49,282.16s5.32-1,9.11,1.66c1.74,1.2,4.19,3.31,2.19,6.18s-4.82,1.33-6.56.12C24.44,287.49,23.49,282.16,23.49,282.16Z"/><path class="cls-12" d="M5.29,297.42s5.4-.38,8.87,2.66c1.59,1.39,3.79,3.75,1.49,6.39s-4.94.78-6.54-.62C5.64,302.82,5.29,297.42,5.29,297.42Z"/><path class="cls-12" d="M37.3,309.34s4.79-2.51,9.19-1.12c2,.64,5,1.92,3.92,5.26s-4.21,2.69-6.23,2.06C39.78,314.15,37.3,309.34,37.3,309.34Z"/><path class="cls-12" d="M15.4,318.54s5.32-1,9.1,1.65c1.75,1.21,4.19,3.31,2.19,6.19s-4.82,1.32-6.56.11C16.34,323.86,15.4,318.54,15.4,318.54Z"/><path class="cls-12" d="M63.61,313.41s4.81-2.48,9.2-1.06c2,.65,5,2,3.88,5.29s-4.23,2.66-6.25,2C66.06,318.23,63.61,313.41,63.61,313.41Z"/><path class="cls-12" d="M45.3,332.08s4.81-2.47,9.2-1.05c2,.65,5,2,3.88,5.29s-4.23,2.66-6.25,2C47.75,336.91,45.3,332.08,45.3,332.08Z"/><path class="cls-12" d="M76.67,331.27s4.34-3.22,8.9-2.53c2.1.31,5.22,1.13,4.7,4.59s-3.75,3.31-5.85,3C79.87,335.63,76.67,331.27,76.67,331.27Z"/><path class="cls-11" d="M286.61,261.05s-5.39-.38-8.86,2.65c-1.6,1.4-3.8,3.76-1.49,6.4s4.94.78,6.54-.62C286.27,266.45,286.61,261.05,286.61,261.05Z"/><path class="cls-11" d="M257.26,274s-5.32-1-9.11,1.65c-1.74,1.21-4.18,3.31-2.19,6.19s4.83,1.32,6.57.11C256.31,279.28,257.26,274,257.26,274Z"/><path class="cls-11" d="M276.51,282.16s-5.32-1-9.11,1.66c-1.74,1.2-4.19,3.31-2.19,6.18s4.82,1.33,6.56.12C275.56,287.49,276.51,282.16,276.51,282.16Z"/><path class="cls-12" d="M294.71,297.42s-5.4-.38-8.87,2.66c-1.59,1.39-3.79,3.75-1.49,6.39s4.94.78,6.54-.62C294.36,302.82,294.71,297.42,294.71,297.42Z"/><path class="cls-12" d="M262.7,309.34s-4.79-2.51-9.19-1.12c-2,.64-5,1.92-3.92,5.26s4.21,2.69,6.23,2.06C260.22,314.15,262.7,309.34,262.7,309.34Z"/><path class="cls-12" d="M284.6,318.54s-5.32-1-9.1,1.65c-1.75,1.21-4.19,3.31-2.19,6.19s4.82,1.32,6.56.11C283.66,323.86,284.6,318.54,284.6,318.54Z"/><path class="cls-12" d="M236.39,313.41s-4.81-2.48-9.2-1.06c-2,.65-5,2-3.88,5.29s4.23,2.66,6.25,2C233.94,318.23,236.39,313.41,236.39,313.41Z"/><path class="cls-12" d="M254.7,332.08s-4.81-2.47-9.2-1.05c-2,.65-5,2-3.88,5.29s4.23,2.66,6.25,2C252.25,336.91,254.7,332.08,254.7,332.08Z"/><path class="cls-12" d="M223.33,331.27s-4.34-3.22-8.9-2.53c-2.1.31-5.22,1.13-4.7,4.59s3.75,3.31,5.85,3C220.13,335.63,223.33,331.27,223.33,331.27Z"/><path class="cls-7" d="M150,213.37c-71.74,0-57,68.25-45.24,84.27,0,0,10-3.83,12.45-13.36l6.66,21.07,11.9-12.77s3.1,9.47,14.23,17c11.05-5.81,17.32-17.34,17.32-17.34l7.49,13.57,9.26-16.59c6.64,7.24,12.22,6.87,12.22,6.87C207,280.18,221.74,213.37,150,213.37Z"/><ellipse class="cls-5" cx="150.12" cy="254.92" rx="28.28" ry="18.41"/><path class="cls-13" d="M130.53,247.28a18.37,18.37,0,0,0,8.83,7.64A30.34,30.34,0,0,0,150,256.54a30.34,30.34,0,0,0,10.64-1.62,18.37,18.37,0,0,0,8.83-7.64c1.32,4.66-.9,10.17-5,13.59l-1.62,1.18a14.57,14.57,0,0,1-1.72,1,20.2,20.2,0,0,1-3.64,1.46,34.63,34.63,0,0,1-3.74.81c-1.23.11-2.47.18-3.71.24s-2.48-.13-3.71-.24a34.63,34.63,0,0,1-3.74-.81,20.2,20.2,0,0,1-3.64-1.46,14.57,14.57,0,0,1-1.72-1l-1.62-1.18C131.43,257.45,129.21,251.94,130.53,247.28Z"/><circle class="cls-6" cx="57.42" cy="189.94" r="36.45"/><circle class="cls-14" cx="57.42" cy="200.06" r="36.45"/><path class="cls-15" d="M89.18,194.77A13.21,13.21,0,0,1,70,176.86a23,23,0,1,0,19.19,17.91Zm-32,19.76a5.46,5.46,0,1,1,5.45-5.45A5.45,5.45,0,0,1,57.14,214.53Z"/><circle class="cls-6" cx="242.58" cy="189.94" r="36.45"/><circle class="cls-14" cx="242.58" cy="200.06" r="36.45"/><path class="cls-15" d="M255.63,194.64a13.22,13.22,0,0,1-19.07-17.77,24.25,24.25,0,0,0-3.32-.24,23,23,0,1,0,22.39,18Zm-32.22,19.89a5.46,5.46,0,1,1,5.46-5.45A5.45,5.45,0,0,1,223.41,214.53Z"/><ellipse class="cls-16" cx="59.25" cy="126.84" rx="29.61" ry="17.17" transform="translate(-21.66 12.6) rotate(-10.27)"/><ellipse class="cls-16" cx="240.75" cy="126.84" rx="17.17" ry="29.61" transform="translate(73.02 341.12) rotate(-79.73)"/><g class="cls-17"><path class="cls-16" d="M105.68,78.64v14.8s6.44,4,21.31,6.37a91,91,0,0,0,14-13.35C116.1,85.13,105.68,78.64,105.68,78.64Z"/><path class="cls-16" d="M194.55,78.64S184.08,85.17,159,86.47a90.82,90.82,0,0,0,14.08,13.37c15-2.36,21.5-6.4,21.5-6.4Z"/></g><path class="cls-18" d="M183.14,58.08,176,71.93a3.32,3.32,0,0,1-5.9,0l-7.16-13.85a3.32,3.32,0,0,0-6.15.64c-3.32,11.34,3,18.13,5.88,20.5a3.31,3.31,0,0,0,2.64.73l7.22-1.13a3,3,0,0,1,1,0L180.77,80a3.34,3.34,0,0,0,2.65-.73c2.83-2.37,9.2-9.16,5.88-20.5A3.33,3.33,0,0,0,183.14,58.08Z"/><path class="cls-19" d="M171,18.15a32.59,32.59,0,0,0-20.89,7.55,32.74,32.74,0,1,0,0,50.37A32.73,32.73,0,1,0,171,18.15Z"/><path class="cls-20" d="M150.12,59.66a40.92,40.92,0,0,0,40.44-35,32.66,32.66,0,0,0-40.44,1.05,32.68,32.68,0,0,0-40.45-1.05A40.93,40.93,0,0,0,150.12,59.66Z"/><path class="cls-21" d="M169.56,23.27a27.59,27.59,0,0,0-19.44,8,27.69,27.69,0,1,0,0,39.36,27.68,27.68,0,1,0,19.44-47.36Z"/><path class="cls-18" d="M150.12,54.75A36,36,0,0,0,184.9,27.92a27.62,27.62,0,0,0-34.78,3.35,27.64,27.64,0,0,0-34.79-3.35A36,36,0,0,0,150.12,54.75Z"/><circle class="cls-19" cx="150.12" cy="51.89" r="34.64" transform="translate(-7.91 35.88) rotate(-13.28)"/><path class="cls-20" d="M150.12,17.26a34.6,34.6,0,0,0-28.28,14.67,31.17,31.17,0,0,0,56.55,0A34.6,34.6,0,0,0,150.12,17.26Z"/><path class="cls-21" d="M150.12,81.35a29.46,29.46,0,1,1,29.45-29.46A29.5,29.5,0,0,1,150.12,81.35Z"/><path class="cls-18" d="M172.82,33.15a29.41,29.41,0,0,0-45.4,0,26.84,26.84,0,0,0,45.4,0Z"/><path class="cls-18" d="M160.11,58.08,153,71.93a3.32,3.32,0,0,1-5.9,0l-7.16-13.85a3.32,3.32,0,0,0-6.15.64c-3.32,11.34,3,18.13,5.88,20.5a3.33,3.33,0,0,0,2.64.73l7.23-1.13a2.91,2.91,0,0,1,1,0L157.74,80a3.33,3.33,0,0,0,2.64-.73c2.84-2.37,9.2-9.16,5.88-20.5A3.32,3.32,0,0,0,160.11,58.08Z"/><circle class="cls-19" cx="150.12" cy="18.79" r="18.19" transform="translate(-1.07 24.29) rotate(-9.22)"/><circle class="cls-22" cx="150.12" cy="18.79" r="13.74"/><circle class="cls-23" cx="151.36" cy="17.09" r="10.63"/><ellipse class="cls-24" cx="143.11" cy="24.24" rx="3.17" ry="3.83" transform="translate(35.33 121.46) rotate(-51.66)"/><circle class="cls-24" cx="156.93" cy="13.02" r="2.04"/><path class="cls-19" d="M105.68,70s12.91,8,44.44,8,44.43-8,44.43-8V84.8s-12.9,8.06-44.43,8.06-44.44-8.06-44.44-8.06Z"/><circle class="cls-22" cx="150.12" cy="85.56" r="5.39"/><circle class="cls-22" cx="181.06" cy="82.18" r="5.39"/><circle class="cls-22" cx="119.17" cy="82.18" r="5.39"/><circle class="cls-24" cx="182.86" cy="80.68" r="2.04"/><circle class="cls-24" cx="120.66" cy="80.68" r="2.04"/><circle class="cls-24" cx="152.04" cy="84.23" r="2.04"/></g></svg>