<svg id="Layer_1" data-name="Layer 1" xmlns="http://www.w3.org/2000/svg" xmlns:xlink="http://www.w3.org/1999/xlink" viewBox="0 0 300 345"><defs><style>.cls-1{fill:url(#linear-gradient);}.cls-2{fill:#ba2e7e;}.cls-3{fill:url(#linear-gradient-2);}.cls-4{fill:#ffcd05;}.cls-5{fill:#fabc2e;}.cls-6,.cls-7{fill-opacity:0.5;}.cls-6{fill:url(#radial-gradient);}.cls-7{fill:url(#radial-gradient-2);}.cls-8{fill:#9a1c25;}.cls-9{fill:#fff;}.cls-10{fill:#32160f;}.cls-11,.cls-13{fill:#61727c;}.cls-12{fill:#92a1ad;}.cls-13{opacity:0.25;}.cls-14{fill:#bc6234;}.cls-15{fill:#f6871f;}.cls-16{fill:#9e1f63;}.cls-17{fill:#f4fbfe;}</style><linearGradient id="linear-gradient" x1="150" y1="356.11" x2="150" y2="202.58" gradientUnits="userSpaceOnUse"><stop offset="0" stop-color="#9e1f63"/><stop offset="0.34" stop-color="#531137"/></linearGradient><linearGradient id="linear-gradient-2" x1="150" y1="339.51" x2="150" y2="252.92" gradientUnits="userSpaceOnUse"><stop offset="0" stop-color="#fabc2e"/><stop offset="1" stop-color="#cd8029"/></linearGradient><radialGradient id="radial-gradient" cx="257.16" cy="256.05" r="41.85" gradientUnits="userSpaceOnUse"><stop offset="0" stop-color="#ec008c"/><stop offset="1" stop-color="#ffcd05" stop-opacity="0"/></radialGradient><radialGradient id="radial-gradient-2" cx="42.84" cy="256.05" r="41.85" xlink:href="#radial-gradient"/></defs><title>blook_queen</title><g id="medieval_fantasy" data-name="medieval fantasy"><path class="cls-1" d="M263.62,345H36.38A36.38,36.38,0,0,1,0,308.62V259.14H300v49.48A36.38,36.38,0,0,1,263.62,345Z"/><circle class="cls-2" cx="150" cy="330.59" r="8.65"/><circle class="cls-2" cx="203.76" cy="330.59" r="8.65"/><circle class="cls-2" cx="96.24" cy="330.59" r="8.65"/><circle class="cls-2" cx="255.2" cy="330.59" r="8.65"/><circle class="cls-2" cx="44.8" cy="330.59" r="8.65"/><path class="cls-3" d="M263.62,316.35H36.38A36.38,36.38,0,0,1,0,280V247.66H300V280A36.38,36.38,0,0,1,263.62,316.35Z"/><rect class="cls-4" y="45" width="300" height="253.39" rx="36.38"/><path class="cls-5" d="M263.62,55.34H36.38A36.38,36.38,0,0,0,0,91.72v61.46s39.92,2.46,59.38-24.92c.33-.46-2,12.28-2,12.28,32.27-2.83,36.94-25.88,38-25.11C130,141.21,199.26,172.05,300,120.81V91.72A36.38,36.38,0,0,0,263.62,55.34Z"/><circle class="cls-6" cx="257.16" cy="256.05" r="41.85"/><circle class="cls-7" cx="42.84" cy="256.05" r="41.85"/><path class="cls-8" d="M130.53,257.67a18.43,18.43,0,0,0,8.85,7.62,30.19,30.19,0,0,0,10.62,1.6,30.19,30.19,0,0,0,10.62-1.6,18.43,18.43,0,0,0,8.85-7.62c1.33,4.67-.88,10.19-5,13.62l-1.61,1.19a15.54,15.54,0,0,1-1.73,1,20.25,20.25,0,0,1-3.64,1.47,35.16,35.16,0,0,1-3.74.81c-1.24.11-2.48.18-3.72.24s-2.48-.13-3.72-.24a35.16,35.16,0,0,1-3.74-.81,20.25,20.25,0,0,1-3.64-1.47,15.54,15.54,0,0,1-1.73-1l-1.61-1.19C131.41,267.86,129.2,262.34,130.53,257.67Z"/><circle class="cls-5" cx="242.58" cy="208.2" r="36.45"/><circle class="cls-5" cx="57.42" cy="208.2" r="36.45"/><circle class="cls-9" cx="242.58" cy="218.32" r="36.45"/><circle class="cls-9" cx="57.42" cy="218.32" r="36.45"/><path class="cls-10" d="M89.18,213A13.21,13.21,0,0,1,70,195.12,23,23,0,1,0,89.18,213Zm-32,19.76a5.46,5.46,0,1,1,5.45-5.46A5.45,5.45,0,0,1,57.14,232.79Z"/><path class="cls-10" d="M255.63,212.9a13.22,13.22,0,0,1-19.07-17.77,24.25,24.25,0,0,0-3.32-.24,23,23,0,1,0,22.39,18Zm-32.22,19.89a5.46,5.46,0,1,1,5.46-5.46A5.45,5.45,0,0,1,223.41,232.79Z"/><path class="cls-11" d="M210.05,157.7c0,12,13.25,7.89,29.61,7.89s29.61,4.65,29.61-7.89S256,140.54,239.66,140.54,210.05,145.75,210.05,157.7Z"/><path class="cls-11" d="M30.73,157.7c0,12,13.25,7.89,29.61,7.89S90,170.24,90,157.7,76.7,140.54,60.34,140.54,30.73,145.75,30.73,157.7Z"/><circle class="cls-12" cx="74.34" cy="42.26" r="42.26"/><path class="cls-12" d="M263.62,45H36.38A36.38,36.38,0,0,0,0,81.38v61.46s49.48,3,65.12-35.42c3.73,23-1.58,26.14-1.58,26.14,20.75-7.9,25.68-21.58,25.19-33.71,31.88,26.38,103.59,65.39,211.27,10.62V81.38A36.38,36.38,0,0,0,263.62,45Z"/><path class="cls-13" d="M154,80.74c0-4.85,4.34-8.3,8.64-6.9,6.77,2.2,17.75,4.55,33.76,4.55s27-2.35,33.75-4.55c4.3-1.4,8.64,2,8.64,6.9h0a7.19,7.19,0,0,1-4.22,6.7c-5.84,2.46-18,6.18-38.17,6.18s-32.34-3.72-38.18-6.18a7.2,7.2,0,0,1-4.22-6.7Z"/><polygon class="cls-14" points="160.45 35.89 172.8 6.78 193.08 34.15 160.45 35.89"/><polygon class="cls-14" points="232.36 35.89 220.01 6.78 199.73 34.15 232.36 35.89"/><path class="cls-15" d="M221.8,33.83,196.41,0h0L171,33.83,148.58,7.25l11.88,59.4s10.44,8.67,35.95,8.67,35.94-8.67,35.94-8.67l11.88-59.4Z"/><path class="cls-14" d="M160,64.84s10.58,6.6,36.43,6.6,36.43-6.6,36.43-6.6V77s-10.58,6.6-36.43,6.6S160,77,160,77Z"/><circle class="cls-16" cx="196.41" cy="47.16" r="12.61"/><circle class="cls-2" cx="196.41" cy="47.1" r="8.65"/><ellipse class="cls-17" cx="202.01" cy="43.5" rx="3.17" ry="3.83" transform="translate(42.59 174.97) rotate(-51.66)"/><path class="cls-16" d="M229.2,47.43c-1.49,6.13-2.22,11.22,3.91,12.71a11.43,11.43,0,1,0,5.4-22.21C232.38,36.44,230.69,41.3,229.2,47.43Z"/><path class="cls-2" d="M233.34,57.36c-4.59-1.28-3.07-4.88-1.78-9.48s1.83-8.46,6.43-7.18a8.65,8.65,0,1,1-4.65,16.66Z"/><ellipse class="cls-17" cx="240.69" cy="45.24" rx="2.81" ry="2.86" transform="translate(55.91 205.97) rotate(-51.66)"/><path class="cls-16" d="M163.62,47.43c1.49,6.13,2.22,11.22-3.92,12.71a11.43,11.43,0,0,1-5.4-22.21C160.44,36.44,162.13,41.3,163.62,47.43Z"/><path class="cls-2" d="M159.47,57.36c4.59-1.28,3.07-4.88,1.79-9.48s-1.84-8.46-6.43-7.18a8.65,8.65,0,1,0,4.64,16.66Z"/><ellipse class="cls-17" cx="158.5" cy="45.24" rx="2.86" ry="2.81" transform="translate(6.12 108.07) rotate(-38.34)"/></g></svg>