<svg id="Layer_1" data-name="Layer 1" xmlns="http://www.w3.org/2000/svg" xmlns:xlink="http://www.w3.org/1999/xlink" viewBox="0 0 300 345"><defs><style>.cls-1,.cls-5{fill:#2fa04a;}.cls-2{fill:url(#linear-gradient);}.cls-3{fill:#a7d054;}.cls-4{fill:#1a673d;fill-opacity:0.7;}.cls-5{fill-opacity:0.5;}.cls-6,.cls-9{fill:#15141a;}.cls-6{stroke:#15141a;stroke-miterlimit:10;stroke-width:7px;}.cls-7{fill:#e4f5fd;}.cls-8{fill:#237d3e;}.cls-10{fill:#fff;}.cls-11{fill:#e6edad;}</style><linearGradient id="linear-gradient" x1="150" y1="414.31" x2="150" y2="226.94" gradientUnits="userSpaceOnUse"><stop offset="0.35" stop-color="#1f8e58"/><stop offset="1" stop-color="#104931"/></linearGradient></defs><title>blook_slime-monster</title><g id="medieval_fantasy" data-name="medieval fantasy"><rect class="cls-1" y="45" width="300" height="253.39" rx="36.38"/><rect class="cls-2" y="229.33" width="300" height="115.67" rx="36.38"/><path class="cls-3" d="M274.11,46.54c.86,7.5-1.41,16-10,24.61C247.56,87.66,239.63,92.49,236,93.79a24.87,24.87,0,0,1,15.06,15.83c1-3.31,5.35-11.16,22.83-28.64,8.61-8.61,17.07-10.88,24.57-10A36.48,36.48,0,0,0,274.11,46.54Z"/><path class="cls-3" d="M25.89,46.54c-.86,7.5,1.41,16,10,24.61C52.44,87.66,60.37,92.49,64,93.79a24.87,24.87,0,0,0-15.06,15.83C48,106.31,43.57,98.46,26.09,81,17.48,72.37,9,70.1,1.52,70.94A36.48,36.48,0,0,1,25.89,46.54Z"/><rect class="cls-4" x="47.79" y="92.25" width="204.41" height="137.08" rx="24.79"/><rect class="cls-5" y="45" width="300" height="253.39" rx="36.38"/><path class="cls-6" d="M186.6,277.49H113.4c0-36.68,18.33-45.87,36.6-45.87S186.6,240.81,186.6,277.49Z"/><polygon class="cls-7" points="122.54 261.94 113.4 277.49 131.69 277.49 122.54 261.94"/><polygon class="cls-7" points="140.84 261.94 131.69 277.49 149.98 277.49 140.84 261.94"/><polygon class="cls-7" points="159.13 261.94 149.98 277.49 168.27 277.49 159.13 261.94"/><polygon class="cls-7" points="177.42 261.94 168.27 277.49 186.57 277.49 177.42 261.94"/><path class="cls-8" d="M97.39,209.92A36.45,36.45,0,1,1,30.73,180.4C38.88,162,105.55,191.51,97.39,209.92Z"/><path class="cls-9" d="M93.3,219.17a36.46,36.46,0,0,1-66.67-29.52C34.78,171.24,101.45,200.76,93.3,219.17Z"/><circle class="cls-10" cx="76.05" cy="210.16" r="7.63"/><path class="cls-8" d="M202.61,209.92a36.45,36.45,0,0,0,66.66-29.52C261.12,162,194.45,191.51,202.61,209.92Z"/><path class="cls-9" d="M206.7,219.17a36.46,36.46,0,0,0,66.67-29.52C265.22,171.24,198.55,200.76,206.7,219.17Z"/><circle class="cls-10" cx="261.08" cy="210.16" r="7.63"/><ellipse class="cls-11" cx="46.22" cy="92.39" rx="27.27" ry="18.31" transform="translate(-29.25 21.85) rotate(-20.36)"/><circle class="cls-11" cx="94.68" cy="73.66" r="12.38"/><circle class="cls-11" cx="279.03" cy="260.65" r="7"/></g></svg>