<svg id="Layer_1" data-name="Layer 1" xmlns="http://www.w3.org/2000/svg" xmlns:xlink="http://www.w3.org/1999/xlink" viewBox="0 0 300 345"><defs><style>.cls-1{fill:url(#linear-gradient);}.cls-2{fill:#fcdfeb;}.cls-3{fill:#afbfe2;}.cls-4,.cls-6{fill:#f3c1da;}.cls-5{fill:#87a6d7;}.cls-6{fill-opacity:0.6;}.cls-7,.cls-8{fill-opacity:0.5;}.cls-7{fill:url(#radial-gradient);}.cls-8{fill:url(#radial-gradient-2);}.cls-9{fill:#fff;}.cls-10{fill:#6f8fc9;}.cls-11,.cls-12{fill:#f6afce;stroke:#ee4c9b;}.cls-11{stroke-linecap:square;stroke-linejoin:round;stroke-width:7px;}</style><linearGradient id="linear-gradient" x1="150" y1="356.11" x2="150" y2="161.16" gradientUnits="userSpaceOnUse"><stop offset="0" stop-color="#ead9ea"/><stop offset="0.46" stop-color="#94acd9"/></linearGradient><radialGradient id="radial-gradient" cx="43.83" cy="237.81" r="41.85" gradientUnits="userSpaceOnUse"><stop offset="0" stop-color="#f6a9cb"/><stop offset="1" stop-color="#f3c1da" stop-opacity="0"/></radialGradient><radialGradient id="radial-gradient-2" cx="251.7" cy="237.81" r="41.85" xlink:href="#radial-gradient"/></defs><title>blook_unicorn</title><g id="medieval_fantasy" data-name="medieval fantasy"><path class="cls-1" d="M263.62,345H36.38A36.38,36.38,0,0,1,0,308.62V259.14H300v49.48A36.38,36.38,0,0,1,263.62,345Z"/><rect class="cls-2" y="45" width="300" height="253.39" rx="36.38"/><path class="cls-3" d="M78,299.75c0,24.51,16.68,44.9,40.05,44.9h32c10.62,0,19.16-.17,31.88-.17,23.37,0,40.05-20.38,40.05-44.89,0-.36,0-.75,0-1.16H78C78,298.9,78,299.34,78,299.75Z"/><path class="cls-2" d="M192.22,185.73c-5-12.58-18-21-32.59-21h-9.7l-9.68,0c-14.54.07-27.49,8.43-32.43,21-13,32.9-23.68,76.62-23.68,111.24,0,22.42,15.26,41.07,36.64,41.07h29.28c9.72,0,17.53-.15,29.16-.15,21.38,0,36.64-18.64,36.64-41.07C215.86,263.59,198.86,202.58,192.22,185.73Z"/><path class="cls-4" d="M124.66,259.08c9.47,0,15.82,5.32,23.72,5.32S162.68,259,172.2,259a29.89,29.89,0,0,1,17.56,5.74,3.21,3.21,0,0,0,5-3.5l0-.13c-5.33-18.11-13.54-69.18-18-84.39-3.32-11.36-12-18.92-21.83-18.92h-6.49l-6.49,0c-9.73.06-18.4,7.61-21.7,18.92-4.64,15.85-12.25,60.59-18.44,85a3.2,3.2,0,0,0,5,3.38A29.91,29.91,0,0,1,124.66,259.08Z"/><path class="cls-3" d="M201.85,299.74a14.27,14.27,0,0,1-24.17,15.19c-4.19-6.67.52-26,.52-26S197.65,293.06,201.85,299.74Z"/><path class="cls-5" d="M199,307.14a14.22,14.22,0,0,1,2.12,8.83,14.25,14.25,0,0,0,.74-16.23c-4.2-6.68-23.65-10.81-23.65-10.81s-.81,3.35-1.46,7.73C181.26,297.75,195.48,301.55,199,307.14Z"/><path class="cls-3" d="M98.15,299.74a14.27,14.27,0,0,0,24.17,15.19c4.19-6.67-.52-26-.52-26S102.35,293.06,98.15,299.74Z"/><path class="cls-5" d="M101,307.14c3.51-5.59,17.73-9.39,22.25-10.48-.65-4.38-1.46-7.73-1.46-7.73s-19.45,4.13-23.65,10.81A14.25,14.25,0,0,0,98.89,316,14.22,14.22,0,0,1,101,307.14Z"/><path class="cls-6" d="M79.48,82.49c-3.66,23.35,16.6,33.72,24.56,41.67s-13.07,11.22-17.75,26,21,26.94,26.45,32.34,6.22,20.88-7,20.88S83.1,191,83.1,191s-1.49,30,30,30c0,0,38.21,5.25,71-46.36C221.46,115.72,181,45,235.77,45H103.9C91.22,53,82.23,65,79.48,82.49Z"/><circle class="cls-7" cx="43.83" cy="237.81" r="41.85"/><circle class="cls-8" cx="251.7" cy="237.81" r="41.85"/><circle class="cls-4" cx="242.58" cy="189.94" r="36.45"/><circle class="cls-4" cx="57.42" cy="189.94" r="36.45"/><circle class="cls-9" cx="242.58" cy="200.06" r="36.45"/><circle class="cls-9" cx="57.42" cy="200.06" r="36.45"/><path class="cls-5" d="M89.18,194.77A13.21,13.21,0,0,1,70,176.86a23,23,0,1,0,19.19,17.91Zm-32,19.76a5.46,5.46,0,1,1,5.45-5.45A5.45,5.45,0,0,1,57.14,214.53Z"/><path class="cls-5" d="M255.63,194.64a13.22,13.22,0,0,1-19.07-17.77,24.25,24.25,0,0,0-3.32-.24,23,23,0,1,0,22.39,18Zm-32.22,19.89a5.46,5.46,0,1,1,5.46-5.45A5.45,5.45,0,0,1,223.41,214.53Z"/><path class="cls-2" d="M0,86.92C0,14.92,38.55,0,38.55,0l35,71.3"/><path class="cls-4" d="M30.41,21.56a61.36,61.36,0,0,1,6.25,8.9,104.43,104.43,0,0,1,5,9.49,103,103,0,0,1,4,9.94A60.74,60.74,0,0,1,48.3,60.43,60.66,60.66,0,0,1,42,51.53,101.78,101.78,0,0,1,37.09,42a104.78,104.78,0,0,1-4-9.95A62.73,62.73,0,0,1,30.41,21.56Z"/><path class="cls-4" d="M17.51,56.13A13.69,13.69,0,0,1,16.93,52a18.22,18.22,0,0,1,.45-4.16A21.24,21.24,0,0,1,21,40a17.59,17.59,0,0,1,7-5.74,17.36,17.36,0,0,1,8.83-1.43v5A20.81,20.81,0,0,0,30.4,39.6a16.35,16.35,0,0,0-5.14,3.88,32.18,32.18,0,0,0-4,5.8C20.06,51.42,18.89,53.68,17.51,56.13Z"/><path class="cls-2" d="M300,86.92C300,14.92,261.45,0,261.45,0l-35,71.3"/><path class="cls-4" d="M269.59,21.56a62.73,62.73,0,0,1-2.69,10.53,104.78,104.78,0,0,1-4,9.95,101.78,101.78,0,0,1-5,9.49,60.66,60.66,0,0,1-6.26,8.9,60.74,60.74,0,0,1,2.69-10.54,103,103,0,0,1,4-9.94,104.43,104.43,0,0,1,5-9.49A61.36,61.36,0,0,1,269.59,21.56Z"/><path class="cls-4" d="M282.49,56.13c-1.38-2.45-2.55-4.71-3.78-6.85a32.18,32.18,0,0,0-4-5.8,16.35,16.35,0,0,0-5.14-3.88,20.81,20.81,0,0,0-6.36-1.76v-5a17.36,17.36,0,0,1,8.83,1.43,17.59,17.59,0,0,1,7,5.74,21.24,21.24,0,0,1,3.57,7.81,18.22,18.22,0,0,1,.45,4.16A13.69,13.69,0,0,1,282.49,56.13Z"/><path class="cls-5" d="M218,45s-12.52-17.78-52.91-17.78-80.91,8.26-87,47.4c-3.3,21,15,30.41,22.14,37.58s-11.78,10.12-16,23.4,19,24.29,23.85,29.17,5.62,18.83-6.35,18.83-20.38-11.1-20.38-11.1-1.34,27.06,27,27.06c0,0,34.46,4.73,64-41.81C206.13,104.58,168.6,45,218,45Z"/><ellipse class="cls-10" cx="150" cy="110.32" rx="29.25" ry="14.11"/><path class="cls-11" d="M166.52,93.5c4.87-11.63,2.3-19.43-2.72-25.74h0c5-11.84.55-20.66-5.23-28-.45-5.93-3-35.74-6.83-35.74s-5.92,14.37-6.36,17.72c-4.79,6.39-4.72,14.22-3.59,20.19,0,0,0,0,0,0a28.07,28.07,0,0,0-2.9,25.48,12.87,12.87,0,0,1-1.18-3.58c-12.12,14.37-2.09,27.95-2.09,27.95l1,1-1.23-1c-7.59,8.37-5.11,15.62-5.11,15.62s3.73,7,20.83,7,18.59-6.69,18.59-6.69a37.43,37.43,0,0,1-5.52-1,40.55,40.55,0,0,0,5.61.72A17.56,17.56,0,0,0,166.52,93.5ZM142,42.71l-.09-.44Z"/><path class="cls-12" d="M158.66,40.76S156.06,4,151.75,4s-6.45,18.42-6.45,18.42S148.75,38.22,158.66,40.76Z"/><path class="cls-12" d="M144.68,51.1s-8.44-17.44.83-29.54c2.16,11.63,28,23.23,18.3,46.2C163.81,67.76,156.2,63.78,144.68,51.1Z"/><path class="cls-12" d="M140.75,71.41s-8.9-14.33,1-29.55c3,17.71,37.64,22.9,24.29,52.68A321,321,0,0,1,140.75,71.41Z"/><path class="cls-12" d="M135.62,91.71s-10-13.58,2.09-27.95c2.5,15.52,35.91,22.48,32.09,43.57A55.22,55.22,0,0,1,135.62,91.71Z"/><path class="cls-12" d="M169.71,107.66s-1.5,6.69-18.59,6.69c-7.48,0-12.4-1.34-15.58-2.85a9.48,9.48,0,0,1-5.15-11,20.92,20.92,0,0,1,5-8.84C153.51,106.31,169.71,107.66,169.71,107.66Z"/></g></svg>