<svg id="Layer_1" data-name="Layer 1" xmlns="http://www.w3.org/2000/svg" xmlns:xlink="http://www.w3.org/1999/xlink" viewBox="0 0 300 345"><defs><style>.cls-1{fill:url(#linear-gradient);}.cls-2{fill:#4ab96d;}.cls-3{fill:url(#linear-gradient-2);}.cls-4{fill:#32935d;}.cls-5{fill:#393644;}.cls-6{fill:#680e19;}.cls-7{fill:#f4fbfe;}.cls-8{fill:#c62639;}.cls-9{fill:none;stroke:#4ab96d;stroke-miterlimit:10;}.cls-10{fill:#1a673d;}.cls-11{fill:#fff;}.cls-12{fill:#9e1f63;}.cls-13{fill:#15141a;}</style><linearGradient id="linear-gradient" x1="150" y1="356.11" x2="150" y2="161.16" gradientUnits="userSpaceOnUse"><stop offset="0" stop-color="#4ab96d"/><stop offset="0.69" stop-color="#1a673d"/></linearGradient><linearGradient id="linear-gradient-2" x1="150" y1="353.73" x2="150" y2="200.53" gradientUnits="userSpaceOnUse"><stop offset="0" stop-color="#2f2c38"/><stop offset="0.39" stop-color="#15141a"/></linearGradient></defs><title>blook_witch</title><g id="medieval_fantasy" data-name="medieval fantasy"><path class="cls-1" d="M263.62,345H36.38A36.38,36.38,0,0,1,0,308.62V259.14H300v49.48A36.38,36.38,0,0,1,263.62,345Z"/><rect class="cls-2" y="45" width="300" height="253.39" rx="36.38"/><path class="cls-3" d="M263.62,313.91H174.83L150,338.74l-24.83-24.83H36.38A36.38,36.38,0,0,1,0,277.53v31.09A36.38,36.38,0,0,0,36.38,345H263.62A36.38,36.38,0,0,0,300,308.62V277.53A36.38,36.38,0,0,1,263.62,313.91Z"/><path class="cls-4" d="M263.62,54.7H150a132.58,132.58,0,0,0,2.34,25.51h-4.68A132.58,132.58,0,0,0,150,54.7H36.38A36.38,36.38,0,0,0,0,91.08v62.34S83.51,169,125.91,124.25a75.69,75.69,0,0,1-6.62,34c16.48-7.55,21.63-20.64,22.45-32.4,6.25,28.18.65,43.88.65,43.88,14.64-11.6,17.57-29.22,16.1-45.64,5.07-.16,10-.45,14.64-.86,42.08,46,126.87,30.23,126.87,30.23V91.08A36.38,36.38,0,0,0,263.62,54.7Z"/><path class="cls-5" d="M263.62,45H150c0,126.7,150,98.71,150,98.71V81.38A36.38,36.38,0,0,0,263.62,45Z"/><path class="cls-5" d="M147.07,73.34A129.7,129.7,0,0,0,150,45H36.38A36.38,36.38,0,0,0,0,81.38v62.33s83.51,15.57,125.91-29.16a75.62,75.62,0,0,1-6.62,34c16.48-7.54,21.63-20.63,22.45-32.4,6.25,28.18.65,43.89.65,43.89C173.93,135,151.14,82.09,147.07,73.34Z"/><path class="cls-6" d="M178.68,260.59a28.68,28.68,0,0,1-57.36,0C121.32,244.75,178.68,244.75,178.68,260.59Z"/><path class="cls-7" d="M145.18,248.86l1.4,10.31c13.28-.59,27.55,2.25,31.2,8.55a28.43,28.43,0,0,0,.9-7.13C178.68,251.77,160.93,247.87,145.18,248.86Z"/><path class="cls-7" d="M134.88,250.32c-7.83,1.84-13.56,5.26-13.56,10.27a28.43,28.43,0,0,0,.9,7.13c2-3.5,7.34-5.93,13.93-7.3Z"/><path class="cls-8" d="M169.42,281.68c-4.54-4-10.81-6.55-19.42-6.55s-14.88,2.55-19.42,6.55a28.67,28.67,0,0,0,38.84,0Z"/><path class="cls-9" d="M178.68,260.59a28.68,28.68,0,0,1-57.36,0C121.32,244.75,178.68,244.75,178.68,260.59Z"/><circle class="cls-10" cx="242.58" cy="206.6" r="36.45"/><circle class="cls-10" cx="57.42" cy="206.6" r="36.45"/><circle class="cls-11" cx="242.58" cy="216.72" r="36.45"/><circle class="cls-11" cx="57.42" cy="216.72" r="36.45"/><path class="cls-12" d="M89.18,211.43A13.21,13.21,0,0,1,70,193.53a22.94,22.94,0,1,0,19.19,17.9Zm-32,19.76a5.45,5.45,0,1,1,5.45-5.45A5.45,5.45,0,0,1,57.14,231.19Z"/><path class="cls-12" d="M255.63,211.3a13.21,13.21,0,0,1-19.07-17.76,23,23,0,1,0,19.07,17.76Zm-32.22,19.89a5.45,5.45,0,1,1,5.46-5.45A5.45,5.45,0,0,1,223.41,231.19Z"/><ellipse class="cls-13" cx="221.84" cy="162.32" rx="29.61" ry="17.17" transform="translate(-48.49 112.48) rotate(-25.75)"/><ellipse class="cls-13" cx="78.16" cy="162.32" rx="17.17" ry="29.61" transform="translate(-102 162.21) rotate(-64.25)"/><ellipse class="cls-13" cx="150" cy="96.24" rx="70.86" ry="18.01"/><polygon class="cls-13" points="104.53 97.29 150 0 195.47 97.29 104.53 97.29"/></g></svg>