<svg id="Layer_1" data-name="Layer 1" xmlns="http://www.w3.org/2000/svg" xmlns:xlink="http://www.w3.org/1999/xlink" viewBox="0 0 300 345"><defs><style>.cls-1{fill:url(#linear-gradient);}.cls-2{fill:#ffcd05;}.cls-3{fill:none;stroke:#cd8e2a;stroke-miterlimit:10;stroke-width:8.99px;}.cls-4{fill:#5a459c;}.cls-5{fill:url(#linear-gradient-2);}.cls-6{fill:url(#linear-gradient-3);}.cls-7{fill:#8b5e3c;}.cls-8{fill:#66402d;}.cls-9{fill:#42308b;}.cls-10{fill:#fabc2e;}.cls-11{fill:#fff;}.cls-12{fill:#414042;}</style><linearGradient id="linear-gradient" x1="150" y1="358.06" x2="150" y2="201.46" gradientUnits="userSpaceOnUse"><stop offset="0" stop-color="#fabc2e"/><stop offset="1" stop-color="#cd8029"/></linearGradient><linearGradient id="linear-gradient-2" x1="262.25" y1="228.77" x2="277.18" y2="283.28" gradientUnits="userSpaceOnUse"><stop offset="0" stop-color="#fabc2e" stop-opacity="0.1"/><stop offset="1" stop-color="#f27ba5"/></linearGradient><linearGradient id="linear-gradient-3" x1="42.75" y1="221.5" x2="19.53" y2="288.74" xlink:href="#linear-gradient-2"/></defs><title>blook_wizard</title><path class="cls-1" d="M263.62,344.81H36.38A36.38,36.38,0,0,1,0,308.43v-66H300v66A36.38,36.38,0,0,1,263.62,344.81Z"/><rect class="cls-2" y="44.81" width="300" height="253.39" rx="36.38"/><line class="cls-3" x1="126.25" y1="280.23" x2="173.75" y2="280.23"/><path class="cls-4" d="M222.46,281.69c-26.88,4.6-17.9,49.61-14.58,63.12h55.74A36.38,36.38,0,0,0,300,308.43V281.27C266.44,285.35,249.58,277,222.46,281.69Z"/><path class="cls-4" d="M77.54,281.69c-27.12-4.65-44,3.66-77.54-.42v27.16a36.38,36.38,0,0,0,36.38,36.38H92.12C95.44,331.3,104.42,286.29,77.54,281.69Z"/><ellipse class="cls-5" cx="271.63" cy="263.06" rx="17.59" ry="13.87"/><ellipse class="cls-6" cx="28.37" cy="263.06" rx="17.59" ry="13.87"/><path class="cls-7" d="M263.62,44.81H36.38A36.38,36.38,0,0,0,0,81.19V168.7a159.62,159.62,0,0,0,35.09,3.86c51.51,0,95.74-24.08,114.91-58.47,19.17,34.39,63.4,58.47,114.91,58.47A159.62,159.62,0,0,0,300,168.7V81.19A36.38,36.38,0,0,0,263.62,44.81Z"/><ellipse class="cls-8" cx="77.85" cy="78.71" rx="67.17" ry="19.45" transform="translate(-16.41 20.66) rotate(-13.69)"/><ellipse class="cls-9" cx="76.22" cy="71.99" rx="67.17" ry="19.45" transform="translate(-14.87 20.08) rotate(-13.69)"/><path class="cls-4" d="M49.67,9.64l-23,72.63s19.51,5,51.39-2.79S125,58.33,125,58.33L71.12,4.41A12.92,12.92,0,0,0,49.67,9.64Z"/><path class="cls-2" d="M88.62,40.28,91.3,44.7a2.22,2.22,0,0,0,1.77,1.06l5.16.29a2.22,2.22,0,0,1,1.55,3.66l-3.37,3.92a2.17,2.17,0,0,0-.46,2l1.31,5a2.21,2.21,0,0,1-3,2.61l-4.77-2a2.22,2.22,0,0,0-2,.18l-4.35,2.8a2.22,2.22,0,0,1-3.41-2L80.12,57a2.2,2.2,0,0,0-.81-1.89l-4-3.27A2.21,2.21,0,0,1,76.2,48l5-1.19a2.23,2.23,0,0,0,1.56-1.35l1.87-4.82A2.22,2.22,0,0,1,88.62,40.28Z"/><path class="cls-2" d="M58.61,11.11,53.1,13a2.48,2.48,0,0,1-2.28-.37l-1.69-1.26L43.54,29a2.42,2.42,0,0,1,.78,1.15L46,35.68a2.48,2.48,0,0,0,4.4.7l3.36-4.73a2.49,2.49,0,0,1,2.06-1l5.81.08a2.48,2.48,0,0,0,2-4l-3.46-4.67a2.45,2.45,0,0,1-.36-2.28l1.87-5.5A2.48,2.48,0,0,0,58.61,11.11Z"/><path class="cls-2" d="M59.33,78.46A2.48,2.48,0,0,1,59,76.18l1.87-5.5a2.48,2.48,0,0,0-3.14-3.16l-5.51,1.86A2.48,2.48,0,0,1,49.91,69l-4.65-3.48a2.49,2.49,0,0,0-4,2l.07,5.81a2.51,2.51,0,0,1-1.06,2.06l-4.74,3.34a2.49,2.49,0,0,0,.69,4.41l1.62.5a125.68,125.68,0,0,0,24.46-1.18Z"/><circle class="cls-10" cx="242.58" cy="222.5" r="36.45"/><circle class="cls-10" cx="57.42" cy="222.5" r="36.45"/><circle class="cls-11" cx="242.58" cy="232.62" r="36.45"/><circle class="cls-11" cx="57.42" cy="232.62" r="36.45"/><path class="cls-12" d="M89.18,227.33A13.21,13.21,0,0,1,70,209.42a23,23,0,1,0,19.19,17.91Zm-32,19.76a5.46,5.46,0,1,1,5.45-5.46A5.45,5.45,0,0,1,57.14,247.09Z"/><path class="cls-12" d="M255.63,227.2a13.22,13.22,0,0,1-19.07-17.77,24.25,24.25,0,0,0-3.32-.24,23,23,0,1,0,22.39,18Zm-32.22,19.89a5.46,5.46,0,1,1,5.46-5.46A5.45,5.45,0,0,1,223.41,247.09Z"/><ellipse class="cls-8" cx="58.19" cy="171.51" rx="29.61" ry="17.17"/><ellipse class="cls-8" cx="241.81" cy="171.51" rx="29.61" ry="17.17"/></svg>