<?xml version="1.0" encoding="UTF-8"?>
<svg id="svg233" xmlns="http://www.w3.org/2000/svg" xmlns:xlink="http://www.w3.org/1999/xlink" viewBox="0 0 982.44 1080.01">
  <defs>
    <style>
      .cls-1 {
        fill: rgba(204, 242, 215, .3);
      }

      .cls-1, .cls-2, .cls-3, .cls-4, .cls-5, .cls-6, .cls-7, .cls-8, .cls-9, .cls-10, .cls-11, .cls-12, .cls-13, .cls-14, .cls-15, .cls-16, .cls-17, .cls-18, .cls-19, .cls-20, .cls-21, .cls-22, .cls-23, .cls-24, .cls-25, .cls-26, .cls-27 {
        fill-rule: evenodd;
      }

      .cls-1, .cls-3, .cls-4, .cls-6, .cls-7, .cls-8, .cls-9, .cls-10, .cls-11, .cls-12, .cls-13, .cls-14, .cls-15, .cls-16, .cls-17, .cls-18, .cls-19, .cls-20, .cls-21, .cls-22, .cls-23, .cls-24, .cls-25, .cls-26, .cls-27, .cls-28, .cls-29, .cls-30, .cls-31, .cls-32, .cls-33 {
        stroke-width: 0px;
      }

      .cls-2 {
        fill: #a3aab3;
        stroke: #636e7d;
        stroke-width: 4.71px;
      }

      .cls-2, .cls-34, .cls-35, .cls-5 {
        stroke-linejoin: round;
      }

      .cls-34 {
        stroke: rgba(204, 242, 215, .5);
        stroke-width: 12.06px;
      }

      .cls-34, .cls-35 {
        fill: none;
      }

      .cls-34, .cls-5 {
        stroke-linecap: round;
      }

      .cls-35 {
        stroke: #939393;
        stroke-width: 6.03px;
      }

      .cls-3 {
        fill: url(#linear-gradient);
      }

      .cls-4 {
        fill: rgba(208, 208, 208, .25);
      }

      .cls-5 {
        fill: #f5da8d;
        stroke: #ffca30;
        stroke-width: 3.01px;
      }

      .cls-6 {
        fill: url(#linear-gradient-2);
      }

      .cls-7 {
        fill: #007d55;
      }

      .cls-8 {
        fill: #005337;
      }

      .cls-9 {
        fill: #00441c;
      }

      .cls-10 {
        fill: #0ec87d;
      }

      .cls-11 {
        fill: #3e4147;
      }

      .cls-12 {
        fill: #636e7d;
      }

      .cls-13 {
        fill: #2a2225;
      }

      .cls-14 {
        fill: #54c072;
      }

      .cls-15 {
        fill: #1b1b1b;
      }

      .cls-16 {
        fill: #6e6f6a;
      }

      .cls-17 {
        fill: #aeaeae;
      }

      .cls-18 {
        fill: #beb6b3;
      }

      .cls-19 {
        fill: #cecece;
      }

      .cls-20 {
        fill: #dde9f7;
      }

      .cls-21, .cls-33 {
        fill: #fff;
      }

      .cls-22 {
        fill: #9d9d9d;
      }

      .cls-23 {
        fill: #a1a1a1;
      }

      .cls-24, .cls-30 {
        fill: #939393;
      }

      .cls-25 {
        fill: #efa200;
      }

      .cls-26 {
        fill: #ee502e;
      }

      .cls-27, .cls-32 {
        fill: #ba7b00;
      }

      .cls-28 {
        fill: #bc966a;
      }

      .cls-29 {
        fill: #bf9a6d;
      }

      .cls-31 {
        fill: #8e8473;
      }
    </style>
    <linearGradient id="linear-gradient" x1="-468.45" y1="1079.91" x2="-467.45" y2="1079.91" gradientTransform="translate(870057.73 -376225.45) rotate(-90) scale(805.15 -805.15)" gradientUnits="userSpaceOnUse">
      <stop offset="0" stop-color="#b9ffe3" stop-opacity=".17"/>
      <stop offset="1" stop-color="#fff" stop-opacity=".17"/>
    </linearGradient>
    <linearGradient id="linear-gradient-2" x1="-468.45" y1="1080.49" x2="-467.45" y2="1080.49" gradientTransform="translate(844039.94 -364789.62) rotate(-90) scale(780.7 -780.7)" gradientUnits="userSpaceOnUse">
      <stop offset="0" stop-color="#fff" stop-opacity=".32"/>
      <stop offset="1" stop-color="#fff" stop-opacity=".32"/>
    </linearGradient>
  </defs>
  <g id="package">
    <path id="path1" class="cls-17" d="m972.95,1076.99V3.01l-37.6,50.12-23.06-50.12-30.15,50.12-31.25-50.12-29.88,50.12-29.75-50.12-34.38,50.12-31.24-50.12-29.07,50.12-29.47-50.12-35.07,50.12-33.98-50.12-29.47,50.12-30.43-50.12-30.43,50.12-26.47-50.12-35.61,50.12-27.29-50.12-32.06,50.12-31.93-50.12-31.66,50.12L289.1,3.01l-30.49,49.05L231.33,3.01l-32.81,50.12L169.77,3.01l-32.89,50.12L105.81,3.01l-30.38,50.15L41.58,3.01,9.96,53.13v1023.86l20.02-39.87,23.24,39.87,22.81-39.87,24.09,39.87,29.42-39.87,29,39.87,30.27-39.87,24.3,39.87,24.52-39.87,27.29,39.87,30.49-39.87,27.93,39.87,29.63-39.87,28.35,39.87,27.72-39.87,27.5,39.87,26.86-39.87,30.06,39.87,27.93-39.87,24.31,39.87,25.8-39.87,26.65,39.87,24.73-39.87,21.53,39.87,24.31-39.87,27.92,39.87,24.1-39.87,27.5,39.87,24.09-39.87,27.72,39.87,25.54-39.87,26.1,39.87,25.58-39.87,32.49,39.87,23.12-39.87,40.08,39.87Z"/>
    <path id="path2" class="cls-24" d="m970.83,1079.13c.87.86,2.16,1.11,3.28.65,1.12-.47,1.86-1.57,1.86-2.78V3.01c0-1.3-.83-2.45-2.06-2.86-1.23-.41-2.59.01-3.36,1.05l-34.57,46.07-20.95-45.53c-.46-1.01-1.45-1.69-2.57-1.75-1.11-.06-2.17.5-2.75,1.46l-27.61,45.9-28.65-45.94c-.55-.89-1.53-1.43-2.58-1.42-1.05.01-2.02.57-2.56,1.47l-27.29,45.77-27.16-45.76c-.52-.88-1.46-1.44-2.49-1.47-1.03-.03-2,.46-2.58,1.31l-31.78,46.32-28.81-46.21c-.56-.9-1.55-1.44-2.6-1.42-1.06.02-2.03.59-2.55,1.5l-26.48,45.66-26.86-45.67c-.52-.88-1.45-1.44-2.48-1.48-1.02-.04-2,.44-2.58,1.28l-32.57,46.53-31.52-46.5c-.58-.86-1.56-1.35-2.59-1.32-1.03.03-1.98.59-2.5,1.48l-26.92,45.77-27.81-45.81c-.55-.9-1.52-1.45-2.58-1.45s-2.03.55-2.58,1.45l-27.68,45.58L483.92,1.61c-.49-.93-1.42-1.53-2.47-1.6-1.04-.07-2.05.41-2.65,1.26l-32.82,46.18L421,1.57c-.51-.94-1.47-1.53-2.54-1.57-1.06-.04-2.07.49-2.64,1.39l-29.52,46.14L356.91,1.39c-.55-.87-1.52-1.4-2.55-1.39-1.03,0-1.99.53-2.54,1.4l-29.18,46.2L291.6,1.33c-.57-.85-1.53-1.35-2.55-1.33-1.02.02-1.97.55-2.51,1.42l-27.78,44.7L233.96,1.55c-.51-.92-1.47-1.51-2.52-1.55-1.05-.04-2.05.48-2.63,1.36l-30.12,46.01L172.38,1.51c-.52-.91-1.48-1.48-2.52-1.51-1.05-.03-2.03.48-2.61,1.36l-30.3,46.17L108.37,1.43C107.82.53,106.84,0,105.8,0c-1.05,0-2.02.56-2.56,1.45l-27.94,46.12L44.08,1.33C43.51.48,42.56-.01,41.54,0c-1.02.02-1.96.54-2.5,1.41L7.42,51.52c-.3.48-.47,1.04-.47,1.61v1023.86c0,1.4.96,2.61,2.32,2.93,1.36.33,2.76-.33,3.39-1.58l17.53-34.9,20.44,35.06c.54.93,1.54,1.5,2.61,1.5,1.08,0,2.07-.59,2.6-1.52l20.27-35.42,21.44,35.47c.52.86,1.44,1.41,2.44,1.45,1,.05,1.97-.41,2.56-1.22l26.98-36.55,26.58,36.54c.56.77,1.45,1.23,2.41,1.24.95,0,1.85-.43,2.43-1.19l27.6-36.35,22,36.1c.55.9,1.52,1.44,2.57,1.45,1.05,0,2.02-.54,2.57-1.44l22.09-35.91,24.67,36.03c.55.8,1.44,1.29,2.41,1.31.97.03,1.89-.41,2.47-1.18l27.99-36.6,25.57,36.49c.55.8,1.46,1.27,2.42,1.29.97,0,1.88-.44,2.46-1.22l27.16-36.54,25.95,36.49c.57.8,1.49,1.27,2.47,1.27.98,0,1.9-.49,2.46-1.29l25.23-36.29,25.03,36.28c.57.82,1.5,1.3,2.5,1.3,1,0,1.92-.51,2.48-1.33l24.5-36.36,27.52,36.49c.58.77,1.49,1.22,2.46,1.19.96-.01,1.86-.49,2.41-1.28l25.29-36.1,21.9,35.94c.54.88,1.5,1.43,2.53,1.45,1.04,0,2.01-.51,2.58-1.38l23.31-36.02,24.1,36.05c.56.85,1.53,1.36,2.55,1.34,1.03-.01,1.97-.55,2.51-1.42l21.99-35.45,19.07,35.29c.51.95,1.49,1.56,2.57,1.58,1.08.03,2.09-.52,2.65-1.44l21.9-35.93,25.28,36.09c.59.83,1.55,1.32,2.57,1.28,1.02-.03,1.95-.58,2.47-1.45l21.69-35.87,24.86,36.03c.58.84,1.55,1.33,2.58,1.29,1.02-.03,1.95-.58,2.49-1.45l21.69-35.89,25.06,36.05c.58.82,1.53,1.31,2.53,1.29,1.01-.01,1.94-.54,2.48-1.38l23.03-35.95,23.55,35.97c.56.85,1.51,1.37,2.53,1.37,1.02,0,1.97-.53,2.52-1.39l23.33-36.36,29.86,36.64c.63.77,1.59,1.18,2.58,1.1s1.87-.64,2.37-1.49l21.16-36.49,37.31,37.11Zm-.88-9.38l-34.95-34.75c-.67-.66-1.59-.98-2.52-.85-.93.12-1.74.67-2.21,1.48l-20.93,36.1-29.73-36.49c-.61-.75-1.54-1.16-2.51-1.11-.96.06-1.84.57-2.37,1.38l-23.06,35.95-23.56-35.97c-.56-.85-1.51-1.37-2.53-1.36-1.02,0-1.97.52-2.52,1.38l-23.1,36.07-25.14-36.16c-.59-.84-1.55-1.32-2.57-1.29-1.02.03-1.95.58-2.48,1.45l-21.68,35.87-24.86-36.03c-.58-.84-1.55-1.33-2.58-1.29-1.02.03-1.95.58-2.48,1.45l-21.71,35.9-25.27-36.07c-.59-.83-1.55-1.32-2.56-1.28-1.02.03-1.95.57-2.48,1.44l-21.57,35.39-19.05-35.25c-.51-.95-1.48-1.55-2.55-1.58-1.08-.04-2.09.51-2.65,1.42l-22.27,35.89-24.05-35.98c-.56-.84-1.51-1.34-2.52-1.33-1.01,0-1.96.52-2.51,1.37l-23.19,35.84-21.8-35.77c-.53-.87-1.46-1.41-2.48-1.44-1.01-.04-1.97.45-2.56,1.28l-25.55,36.47-27.56-36.56c-.59-.77-1.51-1.22-2.49-1.19-.97.02-1.87.52-2.42,1.32l-24.39,36.2-24.99-36.23c-.56-.81-1.49-1.29-2.47-1.29-.99,0-1.92.48-2.48,1.29l-25.27,36.35-25.87-36.37c-.56-.79-1.46-1.26-2.42-1.27-.96-.01-1.87.44-2.45,1.22l-27.14,36.51-25.53-36.44c-.55-.79-1.44-1.27-2.4-1.28-.96-.02-1.87.41-2.46,1.18l-27.96,36.56-24.94-36.43c-.58-.85-1.54-1.34-2.56-1.31-1.02.02-1.96.56-2.49,1.43l-21.94,35.67-21.74-35.66c-.52-.85-1.42-1.39-2.42-1.44-.99-.05-1.95.39-2.55,1.19l-27.82,36.64-26.61-36.59c-.56-.77-1.47-1.24-2.43-1.24-.96,0-1.86.45-2.43,1.22l-26.75,36.24-21.76-36.01c-.55-.92-1.55-1.47-2.62-1.45-1.07,0-2.05.59-2.58,1.51l-20.22,35.34-20.61-35.36c-.56-.95-1.59-1.53-2.7-1.49-1.1.03-2.1.67-2.6,1.66l-14.31,28.51V54L41.67,8.52l31.26,46.32c.57.85,1.54,1.35,2.57,1.33s1.97-.57,2.5-1.45l27.83-45.94,28.48,45.94c.54.87,1.49,1.41,2.52,1.43,1.03.01,1.99-.5,2.56-1.36l30.2-46.02,26.3,45.86c.52.91,1.48,1.48,2.52,1.51s2.04-.48,2.61-1.36l30.08-45.95,24.87,44.7c.52.93,1.49,1.52,2.56,1.55,1.07.03,2.07-.52,2.63-1.42l28.02-45.09,31.01,46.24c.57.85,1.52,1.35,2.54,1.33,1.02-.01,1.96-.54,2.51-1.4l29.12-46.1s29.38,46.11,29.38,46.11c.55.87,1.51,1.39,2.54,1.39s1.99-.52,2.54-1.39l29.32-45.83,24.85,45.64c.5.91,1.43,1.5,2.47,1.57,1.04.06,2.03-.42,2.64-1.26l32.78-46.13,24.18,45.79c.51.96,1.49,1.57,2.58,1.6,1.08.03,2.1-.52,2.66-1.45l27.86-45.88,27.85,45.88c.55.91,1.53,1.46,2.6,1.45,1.06,0,2.04-.57,2.58-1.49l27.05-46.01,31.3,46.17c.56.82,1.48,1.32,2.47,1.32s1.92-.47,2.49-1.29l32.39-46.28,27.09,46.08c.54.92,1.53,1.49,2.6,1.49s2.06-.58,2.6-1.5l26.56-45.78,28.59,45.87c.54.86,1.47,1.4,2.49,1.42,1.01.02,1.97-.47,2.55-1.31l31.72-46.23,27.34,46.06c.54.91,1.53,1.47,2.59,1.47,1.06,0,2.04-.56,2.59-1.47l27.35-45.88,28.64,45.93c.55.89,1.53,1.43,2.58,1.42,1.05,0,2.02-.56,2.56-1.46l27.21-45.24,20.68,44.94c.44.96,1.36,1.62,2.42,1.74,1.06.11,2.09-.34,2.73-1.19l32.18-42.89v1057.69h0Z"/>
    <g id="shadows">
      <g id="g3">
        <rect id="rect2" class="cls-30" x="9.96" y="126.7" width="962.98" height="834.3"/>
        <path id="path3" class="cls-24" d="m972.95,126.7H9.96v834.3h962.99V126.7Zm-6.03,6.03v822.24H15.99V132.72h950.93Z"/>
      </g>
      <g id="g4">
        <path id="path4" class="cls-23" d="m956.78,1027.01v-11.1H21.13v21.75l5.44-10.66h9.34l11.21,18.65c7.12-7.94,15.77-14.14,25.94-18.65h7.97l12.84,18.65c7.23-6.59,16.11-12.77,26.2-18.65h14.93l14.13,18.65c7.82-7.31,17.14-13.49,27.82-18.65h19.06l11.38,18.65c3.93-7.58,11.39-14.5,19.88-18.65h17.09l12.51,18.65c7.35-7.32,15.99-13.48,25.72-18.65h20.55l13.01,18.65c7.32-8.62,14.92-14.56,22.72-18.65h21.57l14.07,18.65c4.59-6.78,13.54-13.06,22.18-18.65h19.67l11.91,18.65c5.3-7.32,12.16-13.48,20.32-18.65h22.68l14.28,18.65c5.29-7.38,12.37-13.66,21.54-18.65h22.71l10.53,18.65c5.79-7.28,12.7-13.45,20.58-18.65h19.35l12.55,18.65c3.72-7.13,9.64-13.31,17.54-18.65h20.38l9.86,18.65c4.4-7.9,10.08-14.03,16.86-18.65h18.68l12.98,18.65c4.56-7.18,10.76-13.27,18.01-18.65h21.37l12.43,18.65c5.94-8.2,13-14.33,21.03-18.65h18.64l12.07,18.65c3.81-7.52,10.5-13.51,18.79-18.65h22.61l10.98,18.65c4.98-9.32,11.13-14.99,17.9-18.65h23.04l15.33,18.65c4.72-9.01,11.25-14.42,18.37-18.65h20.44l17.92,18.65-1.27-18.65Z"/>
      </g>
    </g>
    <g id="lines">
      <g id="g5">
        <path id="path5" class="cls-35" d="m972.95,110.54H9.96"/>
      </g>
      <g id="g6">
        <path id="path6" class="cls-35" d="m972.95,90.44H9.96"/>
      </g>
      <g id="g7">
        <path id="path7" class="cls-35" d="m972.95,998.56H9.96"/>
      </g>
      <g id="g8">
        <path id="path8" class="cls-35" d="m972.95,978.46H9.96"/>
      </g>
    </g>
    <g id="g9">
      <g id="shadows1">
        <path id="path9" class="cls-22" d="m19.36,74.99v-15.78l8.94-14.76,28.26,19.51h23.63l10.41-19.51,24.14,19.51h26.36l11.23-19.51,25.2,19.51h24.59l11.8-19.51,26.47,19.51h21.93l11.07-19.51,30.32,19.51h23.73l11.12-19.51,27.63,19.51h24.41l11.49-19.51,25.42,19.51h23.34l12.45-19.6,27.94,19.6h22.64l10.05-19.51,31.59,19.51h18.09l10.47-19.51,29.33,19.51h23.78l13.26-19.51,28.08,19.51h23.93l10.47-19.51,33.96,19.51h14.98l12.85-19.51,28.62,19.51h24.13l10.55-19.51,34.19,19.51h15.86l10.79-19.51,22.42,19.51h18.21l14.5-19.51-6.34,30.71-21.74-.17H19.36Z"/>
      </g>
    </g>
    <g id="light">
      <g id="g10">
        <path id="path10" class="cls-21" d="m915.43,36.22c2.72,7.05,13.86,19.6,13.86,19.6l-16.59-38.65s.88,14.26,2.73,19.05Zm-430.39-.94c3.25,6.83,15.31,18.5,15.31,18.5l-18.88-37.28s1.37,14.15,3.57,18.79Zm-62.44,0c3.25,6.83,15.31,18.5,15.31,18.5l-19.47-37.28s1.96,14.15,4.17,18.79Zm-311.84.05c3.32,6.79,17.84,18.35,17.84,18.35l-22.19-37.09s2.1,14.13,4.35,18.74Zm-64.15,0c3.32,6.79,19.05,18.35,19.05,18.35l-23.4-37.09s2.1,14.13,4.35,18.74Zm127.57,0c3.32,6.79,16.36,18.35,16.36,18.35l-20.7-37.09s2.1,14.13,4.35,18.74Zm61.39.08c3.41,6.75,15.73,18.13,15.73,18.13l-19.58-36.82s1.54,14.1,3.85,18.68Zm308.47.14c3.57,6.66,16.17,17.75,16.17,17.75l-21.23-36.31s2.63,14.04,5.06,18.57Zm128.43.03c3.62,6.64,16.28,17.65,16.28,17.65l-21.44-36.19s2.72,14.03,5.16,18.54Zm124.44.02c3.63,6.63,16.33,17.6,16.33,17.6l-21.55-36.12s2.76,14.02,5.22,18.52Zm-65.31,0c3.63,6.63,16.33,17.6,16.33,17.6l-21.55-36.12s2.76,14.02,5.22,18.52Zm125.75.05c3.69,6.6,16.49,17.46,16.49,17.46l-21.87-35.93s2.89,14,5.39,18.47Zm-496.7.07c3.78,6.55,16.71,17.24,16.71,17.24l-21.75-35.64s2.47,13.96,5.04,18.4Zm244.98.09c3.88,6.49,16.98,16.98,16.98,16.98l-22.89-35.29s3.28,13.91,5.92,18.31Zm-309.77.09c3.98,6.43,17.25,16.7,17.25,16.7l-22.65-34.92s2.7,13.85,5.4,18.21Z"/>
      </g>
      <path id="path11" class="cls-21" d="m961.41,118.69c.33,1.69.4,2.09.23,3.8-.17,1.66-3.58,2.47-3.58,2.47,0,0,9.42-.22,9.58-1.88.22-2.31.14-3.29-.33-5.57-.33-1.63-9.73-1.99-9.73-1.99,0,0,3.49,1.54,3.83,3.17Zm-.62-20.29c.25,1.16.35,3.7.23,4.88-.16,1.66-4.76,2.67-4.76,2.67,0,0,10.6-.42,10.76-2.07.17-1.8.04-4.96-.34-6.73-.35-1.63-10.86-1.88-10.86-1.88,0,0,4.62,1.51,4.96,3.14Zm7.09-74.23s-6.74,49.61-6.89,51.1c-.14,1.34-.43,2.65-1.82,3.34-1.49.74-12.93,5.64-12.93,5.64,0,0,14.14.5,15.62-.24,3-1.5,4.35-3.89,4.91-6.67.41-2.06.31-4.38.35-6.51.17-8.6.3-17.19.56-25.78.09-3.33.2-20.87.2-20.87Z"/>
      <g id="g12">
        <path id="path12" class="cls-19" d="m945.37,116.11c-308.85,8.97-617.93,7.97-927.17,0h927.17Z"/>
      </g>
      <g id="g13">
        <path id="path13" class="cls-19" d="m945.37,97.07c-308.85,8.97-617.93,7.97-927.17,0h927.17Z"/>
      </g>
      <g id="g14">
        <path id="path14" class="cls-21" d="m753.61,1048.01c3.69-6.6,14.84-15.31,14.84-15.31l-20.23,33.79s2.89-14,5.39-18.47Zm-149.92-.39c3.61-6.64,14.78-15.98,14.78-15.98l-19.94,34.51s2.71-14.03,5.16-18.53Zm-498.41-.57c3.32-6.8,19.39-14.36,19.39-14.36l-23.74,33.1s2.1-14.13,4.35-18.74Zm58.46-.05c3.32-6.79,20.4-14.31,20.4-14.31l-24.75,33.06s2.1-14.13,4.35-18.75Zm639.36-.53c2.73-7.05,18.37-14.83,18.37-14.83l-21.11,33.88s.89-14.26,2.73-19.05Zm109.2,0c2.73-7.05,16.5-14.83,16.5-14.83l-19.23,33.88s.89-14.26,2.73-19.05Zm-57.51,0c2.73-7.05,18.37-14.83,18.37-14.83l-21.11,33.88s.88-14.26,2.73-19.05Zm-355.78.25c3.57-6.66,18.4-15.08,18.4-15.08l-23.45,33.64s2.63-14.04,5.06-18.56Zm-169.44-.28c3.78-6.55,18.72-14.8,18.72-14.8l-23.75,33.2s2.47-13.95,5.04-18.4Zm371.82,1.57c3.63-6.63,14.47-15.31,14.47-15.31l-18.84,32.08s1.9-12.27,4.37-16.77Zm-149.12-1.55c3.88-6.49,14.3-13.77,14.3-13.77l-20.21,32.08s3.28-13.91,5.91-18.32Zm-495.83-.64c2.96-6.96,14.6-13.14,14.6-13.14l-17.96,32.08s1.35-14.22,3.36-18.95Zm215.15.66c3.98-6.42,18.81-14.84,18.81-14.84l-24.21,33.06s2.7-13.85,5.4-18.21Zm115.26-.72c3.25-6.82,18.2-14.12,18.2-14.12l-22.37,32.91s1.96-14.16,4.17-18.79Zm264.03.11c3.63-6.63,14.01-14.23,14.01-14.23l-19.23,32.75s2.76-14.03,5.22-18.52Zm-432.9-.9c3.41-6.75,15.47-13.32,15.47-13.32l-19.32,32s1.54-14.1,3.85-18.68Zm223.76-.15c3.25-6.82,17.42-13.17,17.42-13.17l-21,31.96s1.37-14.16,3.57-18.79Z"/>
      </g>
      <g id="g15">
        <path id="path15" class="cls-21" d="m960.57,1010.27c0,40,6.37,45.74,6.37,45.74l-.22-12.24s-.12,6.47-.12-33.5c0-1.66-1.35-3.01-3.02-3.01s-3.01,1.35-3.01,3.01Z"/>
      </g>
      <g id="g16">
        <path id="path16" class="cls-19" d="m945.37,983.89c-308.85,8.97-617.93,7.97-927.17,0h927.17Z"/>
      </g>
      <g id="g17">
        <path id="path17" class="cls-19" d="m945.37,964.84c-308.85,8.97-617.93,7.97-927.17,0h927.17Z"/>
      </g>
    </g>
    <g id="g18">
      <path id="path18" class="cls-4" d="m442.95,1067.49L132.04,45.32l4.84,7.81L168.91,4.32l326.23,1070.28-1.67,2.39-30.06-39.87-20.46,30.37Zm224.41-28.13L347.01,14.67l7.36-11.65,31.93,50.12L418.36,3.01l27.29,50.12L481.26,3.01l26.47,50.12,30.43-50.12,30.43,50.12,29.47-50.12,33.98,50.12,35.06-50.12,29.48,50.12,29.06-50.12,15.32,24.57,232,728.27v321.14l-40.08-39.87-23.12,39.87-32.49-39.87-25.58,39.87-26.1-39.87-25.54,39.87-27.71-39.87-24.09,39.87-27.5-39.87-24.1,39.87-27.92-39.87-1.37,2.24ZM900.65,22.36l72.3,226.96v216.29L834.4,30.67l16.49-27.66,31.24,50.12,18.52-30.77Z"/>
    </g>
    <path id="path19" class="cls-7" d="m9.96,947.81c-7.34,0-7.69-11.86-7.69-21.7L0,163.63c0-11.16,3.8-20.97,9.96-20.97h962.01c6.48,0,10.47,9.81,10.47,20.97l-2.39,762.48c0,9.85-.38,21.7-8.09,21.7H9.96Z"/>
    <g id="g20">
      <path id="path20" class="cls-10" d="m9.96,947.81c-7.33,0-7.69-11.86-7.69-21.7L0,163.63C0,152.47,3.8,142.66,9.96,142.66h962.01c6.48,0,10.47,9.81,10.47,20.97l-2.39,762.48c0,9.85-.38,21.7-8.09,21.7H9.96Zm11.94-8.36c-7.16,0-7.51-11.5-7.51-21.06L9.44,171.33c0-10.83,3.7-20.35,9.72-20.35h943.88c6.32,0,10.21,9.52,10.21,20.35l-4.65,747.06c0,9.56-.37,21.06-7.89,21.06H21.9Z"/>
    </g>
  </g>
  <g id="background">
    <g id="g29">
      <g id="g21">
        <circle id="circle20" class="cls-33" cx="52.18" cy="193.82" r="13.9"/>
      </g>
      <g id="g22">
        <circle id="circle21" class="cls-33" cx="929.84" cy="193.82" r="13.9"/>
      </g>
      <g id="g23">
        <circle id="circle22" class="cls-33" cx="926.02" cy="899.4" r="13.9"/>
      </g>
      <g id="g24">
        <circle id="circle23" class="cls-33" cx="57.08" cy="899.4" r="13.9"/>
      </g>
      <g id="g25">
        <path id="path24" class="cls-5" d="m52.18,162.81c17.11,0,31.01,13.9,31.01,31.01s-13.89,31.01-31.01,31.01-31.01-13.89-31.01-31.01,13.9-31.01,31.01-31.01Zm0,21.1c5.47,0,9.91,4.44,9.91,9.91s-4.44,9.91-9.91,9.91-9.91-4.44-9.91-9.91,4.44-9.91,9.91-9.91Z"/>
      </g>
      <g id="g26">
        <path id="path25" class="cls-5" d="m929.47,162.81c17.11,0,31.01,13.9,31.01,31.01s-13.89,31.01-31.01,31.01-31.01-13.89-31.01-31.01,13.9-31.01,31.01-31.01Zm0,21.1c5.47,0,9.91,4.44,9.91,9.91s-4.44,9.91-9.91,9.91-9.91-4.44-9.91-9.91,4.44-9.91,9.91-9.91Z"/>
      </g>
      <g id="g27">
        <path id="path26" class="cls-5" d="m925.85,868.64c17.11,0,31.01,13.9,31.01,31.01s-13.89,31.01-31.01,31.01-31.01-13.89-31.01-31.01,13.9-31.01,31.01-31.01Zm0,21.1c5.47,0,9.91,4.44,9.91,9.91s-4.44,9.91-9.91,9.91-9.91-4.44-9.91-9.91,4.44-9.91,9.91-9.91Z"/>
      </g>
      <g id="g28">
        <path id="path27" class="cls-5" d="m56.52,868.64c17.11,0,31.01,13.9,31.01,31.01s-13.89,31.01-31.01,31.01-31.01-13.89-31.01-31.01,13.9-31.01,31.01-31.01Zm0,21.1c5.47,0,9.91,4.44,9.91,9.91s-4.44,9.91-9.91,9.91-9.91-4.44-9.91-9.91,4.44-9.91,9.91-9.91Z"/>
      </g>
    </g>
    <g id="g36">
      <g id="g30">
        <path id="path29" class="cls-8" d="m911.29,313.31v474.91l-71.3,39.03c-4.38,2.4-5.98,7.9-3.59,12.28,2.39,4.38,7.9,5.99,12.28,3.59l76-41.6c2.89-1.59,4.69-4.63,4.69-7.94v-480.07c3.67-5.77,7.07-12.19,7.07-16.17,0-8.86-7.19-16.05-16.04-16.05s-16.04,7.19-16.04,16.05c0,3.93,3.32,10.26,6.94,15.98Z"/>
      </g>
      <g id="g31">
        <path id="path30" class="cls-8" d="m482.3,691.79l2.94,103.59c.05,1.82.65,3.59,1.73,5.06l29.18,40.07c1.7,2.34,4.42,3.72,7.31,3.72h222.01c4.99,0,9.04-4.05,9.04-9.04s-4.05-9.04-9.04-9.04h-217.41l-24.82-34.08-2.86-100.64c3.6-5.7,6.89-11.98,6.89-15.9,0-8.85-7.19-16.04-16.04-16.04s-16.05,7.19-16.05,16.04c0,4,3.43,10.47,7.12,16.26Z"/>
      </g>
      <g id="g32">
        <path id="path31" class="cls-8" d="m54.23,503.57v299.96c0,2.68,1.19,5.22,3.24,6.94l91.64,92.04c1.63,1.36,3.68,2.11,5.8,2.11h585.61c4.99,0,9.04-4.05,9.04-9.04s-4.05-9.04-9.04-9.04H158.2l-85.88-87.23v-295.61c3.66-5.76,7.04-12.16,7.04-16.13,0-8.86-7.19-16.05-16.05-16.05s-16.05,7.19-16.05,16.05c0,3.94,3.34,10.28,6.97,16.02Z"/>
      </g>
      <g id="g33">
        <circle id="circle32" class="cls-29" cx="63.3" cy="488.3" r="7.99"/>
      </g>
      <g id="g34">
        <circle id="circle33" class="cls-29" cx="491.22" cy="675.9" r="7.99"/>
      </g>
      <g id="g35">
        <circle id="circle34" class="cls-29" cx="920.51" cy="297.69" r="7.99"/>
      </g>
    </g>
    <g id="g43">
      <g id="g37">
        <path id="path36" class="cls-8" d="m862.43,802.95c0-3.37-2.74-6.11-6.1-6.11h-124.28c-3.37,0-6.11,2.73-6.11,6.11v116.2c0,3.36,2.74,6.1,6.11,6.1h124.28c3.36,0,6.1-2.73,6.1-6.1v-116.2Z"/>
      </g>
      <g id="g38">
        <path id="path37" class="cls-11" d="m852.44,812.74c0-2.9-2.35-5.25-5.25-5.25h-106.89c-2.9,0-5.25,2.35-5.25,5.25v99.94c0,2.89,2.35,5.24,5.25,5.24h106.89c2.89,0,5.25-2.35,5.25-5.24v-99.94Z"/>
        <path id="path38" class="cls-15" d="m852.44,812.74c0-2.9-2.35-5.25-5.25-5.25h-106.89c-2.9,0-5.25,2.35-5.25,5.25v99.94c0,2.89,2.35,5.24,5.25,5.24h106.89c2.89,0,5.25-2.35,5.25-5.24v-99.94Zm-111.36.77v98.39h105.33v-98.39h-105.33Z"/>
      </g>
      <g id="g39">
        <rect id="rect38" class="cls-31" x="754.11" y="851.48" width="80.15" height="19.13"/>
      </g>
      <g id="g40">
        <rect id="rect39" class="cls-31" x="754.11" y="825.61" width="36.25" height="19.13"/>
      </g>
      <g id="g41">
        <rect id="rect40" class="cls-31" x="754.11" y="876.44" width="63.03" height="19.13"/>
      </g>
      <g id="g42">
        <circle id="circle41" class="cls-31" cx="813.36" cy="835.18" r="12.07"/>
      </g>
    </g>
    <g id="g52">
      <g id="g44">
        <circle id="circle43" class="cls-28" cx="491.22" cy="619.73" r="10.14"/>
      </g>
      <g id="g45">
        <circle id="circle44" class="cls-28" cx="491.22" cy="567.74" r="10.14"/>
      </g>
      <g id="g46">
        <circle id="circle45" class="cls-28" cx="491.22" cy="515.85" r="10.14"/>
      </g>
      <g id="g47">
        <circle id="circle46" class="cls-28" cx="217.79" cy="420.04" r="9.61"/>
      </g>
      <g id="g48">
        <circle id="circle47" class="cls-28" cx="175.16" cy="420.04" r="9.61"/>
      </g>
      <g id="g49">
        <circle id="circle48" class="cls-28" cx="128.77" cy="420.04" r="9.61"/>
      </g>
      <g id="g50">
        <circle id="circle49" class="cls-28" cx="84.81" cy="420.04" r="9.61"/>
      </g>
      <g id="g51">
        <circle id="circle50" class="cls-28" cx="40.63" cy="420.04" r="9.61"/>
      </g>
    </g>
    <g id="g58">
      <g id="g53">
        <path id="path52" class="cls-18" d="m80.91,281.24c0-2.04-1.65-3.69-3.69-3.69h-5.6c-2.04,0-3.69,1.65-3.69,3.69v1.62c0,2.04,1.65,3.69,3.69,3.69h5.6c2.04,0,3.69-1.65,3.69-3.69v-1.62Z"/>
      </g>
      <g id="g54">
        <path id="path53" class="cls-18" d="m80.91,292.8c0-2.04-1.65-3.69-3.69-3.69h-5.6c-2.04,0-3.69,1.65-3.69,3.69v1.62c0,2.04,1.65,3.69,3.69,3.69h5.6c2.04,0,3.69-1.65,3.69-3.69v-1.62Z"/>
      </g>
      <g id="g55">
        <path id="path54" class="cls-18" d="m50.2,281.24c0-2.04-1.65-3.69-3.69-3.69h-5.6c-2.04,0-3.69,1.65-3.69,3.69v1.62c0,2.04,1.65,3.69,3.69,3.69h5.6c2.04,0,3.69-1.65,3.69-3.69v-1.62Z"/>
      </g>
      <g id="g56">
        <path id="path55" class="cls-18" d="m50.2,292.8c0-2.04-1.65-3.69-3.69-3.69h-5.6c-2.04,0-3.69,1.65-3.69,3.69v1.62c0,2.04,1.65,3.69,3.69,3.69h5.6c2.04,0,3.69-1.65,3.69-3.69v-1.62Z"/>
      </g>
      <g id="g57">
        <path id="path56" class="cls-13" d="m71.76,277.2c0-.95-.77-1.71-1.71-1.71h-22.22c-.95,0-1.71.77-1.71,1.71v21.06c0,.95.77,1.71,1.71,1.71h22.22c.95,0,1.71-.77,1.71-1.71v-21.06Z"/>
      </g>
    </g>
    <g id="g64">
      <g id="g59">
        <path id="path58" class="cls-18" d="m80.91,357.16c0-2.04-1.65-3.69-3.69-3.69h-5.6c-2.04,0-3.69,1.65-3.69,3.69v1.62c0,2.04,1.65,3.69,3.69,3.69h5.6c2.04,0,3.69-1.65,3.69-3.69v-1.62Z"/>
      </g>
      <g id="g60">
        <path id="path59" class="cls-18" d="m80.91,368.73c0-2.04-1.65-3.69-3.69-3.69h-5.6c-2.04,0-3.69,1.65-3.69,3.69v1.62c0,2.04,1.65,3.69,3.69,3.69h5.6c2.04,0,3.69-1.65,3.69-3.69v-1.62Z"/>
      </g>
      <g id="g61">
        <path id="path60" class="cls-18" d="m50.2,357.16c0-2.04-1.65-3.69-3.69-3.69h-5.6c-2.04,0-3.69,1.65-3.69,3.69v1.62c0,2.04,1.65,3.69,3.69,3.69h5.6c2.04,0,3.69-1.65,3.69-3.69v-1.62Z"/>
      </g>
      <g id="g62">
        <path id="path61" class="cls-18" d="m50.2,368.73c0-2.04-1.65-3.69-3.69-3.69h-5.6c-2.04,0-3.69,1.65-3.69,3.69v1.62c0,2.04,1.65,3.69,3.69,3.69h5.6c2.04,0,3.69-1.65,3.69-3.69v-1.62Z"/>
      </g>
      <g id="g63">
        <path id="path62" class="cls-13" d="m71.76,353.13c0-.95-.77-1.71-1.71-1.71h-22.22c-.95,0-1.71.77-1.71,1.71v21.06c0,.95.77,1.71,1.71,1.71h22.22c.95,0,1.71-.77,1.71-1.71v-21.06Z"/>
      </g>
    </g>
    <g id="g70">
      <g id="g65">
        <path id="path64" class="cls-18" d="m91.73,664.58c-1.36,0-2.46,1.1-2.46,2.46v3.32c0,1.36,1.1,2.46,2.46,2.46h1.08c1.36,0,2.46-1.1,2.46-2.46v-3.32c0-1.36-1.1-2.46-2.46-2.46h-1.08Z"/>
      </g>
      <g id="g66">
        <path id="path65" class="cls-18" d="m99.45,664.58c-1.36,0-2.46,1.1-2.46,2.46v3.32c0,1.36,1.1,2.46,2.46,2.46h1.08c1.36,0,2.46-1.1,2.46-2.46v-3.32c0-1.36-1.1-2.46-2.46-2.46h-1.08Z"/>
      </g>
      <g id="g67">
        <path id="path66" class="cls-18" d="m91.73,684.1c-1.36,0-2.46,1.1-2.46,2.46v3.32c0,1.36,1.1,2.46,2.46,2.46h1.08c1.36,0,2.46-1.1,2.46-2.46v-3.32c0-1.36-1.1-2.46-2.46-2.46h-1.08Z"/>
      </g>
      <g id="g68">
        <path id="path67" class="cls-18" d="m99.45,684.1c-1.36,0-2.46,1.1-2.46,2.46v3.32c0,1.36,1.1,2.46,2.46,2.46h1.08c1.36,0,2.46-1.1,2.46-2.46v-3.32c0-1.36-1.1-2.46-2.46-2.46h-1.08Z"/>
      </g>
      <g id="g69">
        <path id="path68" class="cls-13" d="m89.04,670.4c-.63,0-1.14.51-1.14,1.14v14.01c0,.63.51,1.14,1.14,1.14h14.04c.63,0,1.14-.51,1.14-1.14v-14.01c0-.63-.51-1.14-1.14-1.14h-14.04Z"/>
      </g>
    </g>
    <g id="g76">
      <g id="g71">
        <path id="path70" class="cls-18" d="m91.73,710.61c-1.36,0-2.46,1.1-2.46,2.46v3.32c0,1.36,1.1,2.46,2.46,2.46h1.08c1.36,0,2.46-1.1,2.46-2.46v-3.32c0-1.36-1.1-2.46-2.46-2.46h-1.08Z"/>
      </g>
      <g id="g72">
        <path id="path71" class="cls-18" d="m99.45,710.61c-1.36,0-2.46,1.1-2.46,2.46v3.32c0,1.36,1.1,2.46,2.46,2.46h1.08c1.36,0,2.46-1.1,2.46-2.46v-3.32c0-1.36-1.1-2.46-2.46-2.46h-1.08Z"/>
      </g>
      <g id="g73">
        <path id="path72" class="cls-18" d="m91.73,730.12c-1.36,0-2.46,1.1-2.46,2.46v3.32c0,1.36,1.1,2.46,2.46,2.46h1.08c1.36,0,2.46-1.1,2.46-2.46v-3.32c0-1.36-1.1-2.46-2.46-2.46h-1.08Z"/>
      </g>
      <g id="g74">
        <path id="path73" class="cls-18" d="m99.45,730.12c-1.36,0-2.46,1.1-2.46,2.46v3.32c0,1.36,1.1,2.46,2.46,2.46h1.08c1.36,0,2.46-1.1,2.46-2.46v-3.32c0-1.36-1.1-2.46-2.46-2.46h-1.08Z"/>
      </g>
      <g id="g75">
        <path id="path74" class="cls-13" d="m89.04,716.42c-.63,0-1.14.51-1.14,1.14v14.01c0,.63.51,1.14,1.14,1.14h14.04c.63,0,1.14-.51,1.14-1.14v-14.01c0-.63-.51-1.14-1.14-1.14h-14.04Z"/>
      </g>
    </g>
    <g id="g82">
      <g id="g77">
        <path id="path76" class="cls-18" d="m91.73,753.77c-1.36,0-2.46,1.1-2.46,2.46v3.32c0,1.36,1.1,2.46,2.46,2.46h1.08c1.36,0,2.46-1.1,2.46-2.46v-3.32c0-1.36-1.1-2.46-2.46-2.46h-1.08Z"/>
      </g>
      <g id="g78">
        <path id="path77" class="cls-18" d="m99.45,753.77c-1.36,0-2.46,1.1-2.46,2.46v3.32c0,1.36,1.1,2.46,2.46,2.46h1.08c1.36,0,2.46-1.1,2.46-2.46v-3.32c0-1.36-1.1-2.46-2.46-2.46h-1.08Z"/>
      </g>
      <g id="g79">
        <path id="path78" class="cls-18" d="m91.73,773.28c-1.36,0-2.46,1.1-2.46,2.46v3.32c0,1.36,1.1,2.46,2.46,2.46h1.08c1.36,0,2.46-1.1,2.46-2.46v-3.32c0-1.36-1.1-2.46-2.46-2.46h-1.08Z"/>
      </g>
      <g id="g80">
        <path id="path79" class="cls-18" d="m99.45,773.28c-1.36,0-2.46,1.1-2.46,2.46v3.32c0,1.36,1.1,2.46,2.46,2.46h1.08c1.36,0,2.46-1.1,2.46-2.46v-3.32c0-1.36-1.1-2.46-2.46-2.46h-1.08Z"/>
      </g>
      <g id="g81">
        <path id="path80" class="cls-13" d="m89.04,759.58c-.63,0-1.14.51-1.14,1.14v14.01c0,.63.51,1.14,1.14,1.14h14.04c.63,0,1.14-.51,1.14-1.14v-14.01c0-.63-.51-1.14-1.14-1.14h-14.04Z"/>
      </g>
    </g>
    <g id="g88">
      <g id="g83">
        <path id="path82" class="cls-18" d="m620.66,791.35c0-2.3-1.87-4.18-4.18-4.18h-6.33c-2.3,0-4.18,1.87-4.18,4.18v1.83c0,2.3,1.87,4.18,4.18,4.18h6.33c2.3,0,4.18-1.87,4.18-4.18v-1.83Z"/>
      </g>
      <g id="g84">
        <path id="path83" class="cls-18" d="m620.66,804.43c0-2.3-1.87-4.18-4.18-4.18h-6.33c-2.3,0-4.18,1.87-4.18,4.18v1.83c0,2.3,1.87,4.18,4.18,4.18h6.33c2.3,0,4.18-1.87,4.18-4.18v-1.83Z"/>
      </g>
      <g id="g85">
        <path id="path84" class="cls-18" d="m585.92,791.35c0-2.3-1.87-4.18-4.18-4.18h-6.33c-2.3,0-4.18,1.87-4.18,4.18v1.83c0,2.3,1.87,4.18,4.18,4.18h6.33c2.3,0,4.18-1.87,4.18-4.18v-1.83Z"/>
      </g>
      <g id="g86">
        <path id="path85" class="cls-18" d="m585.92,804.43c0-2.3-1.87-4.18-4.18-4.18h-6.33c-2.3,0-4.18,1.87-4.18,4.18v1.83c0,2.3,1.87,4.18,4.18,4.18h6.33c2.3,0,4.18-1.87,4.18-4.18v-1.83Z"/>
      </g>
      <g id="g87">
        <path id="path86" class="cls-13" d="m610.31,786.79c0-1.07-.87-1.94-1.94-1.94h-25.13c-1.07,0-1.94.87-1.94,1.94v23.81c0,1.07.87,1.94,1.94,1.94h25.13c1.07,0,1.94-.87,1.94-1.94v-23.81Z"/>
      </g>
    </g>
    <g id="g96">
      <g id="g89">
        <path id="path88" class="cls-25" d="m443.01,352.18h-190.46v595.63h164.52v-464.64l25.94-39.57v-91.42Z"/>
      </g>
      <g id="g90">
        <path id="path89" class="cls-27" d="m443.01,352.18h-21.31v91.42l-25.94,39.57v464.64h21.31v-464.64l25.94-39.57v-91.42Z"/>
      </g>
      <g id="g91">
        <rect id="rect90" class="cls-32" x="252.55" y="352.17" width="21.36" height="595.63"/>
      </g>
      <g id="g92">
        <rect id="rect91" class="cls-32" x="284.96" y="352.17" width="21.36" height="595.63"/>
      </g>
      <g id="g93">
        <rect id="rect92" class="cls-32" x="318.67" y="352.17" width="21.36" height="595.63"/>
      </g>
      <g id="g94">
        <path id="path93" class="cls-27" d="m402.09,352.18h-46.08l-1.18,130.99v464.64h21.31v-464.64l25.94-39.57v-91.42Z"/>
      </g>
      <g id="g95">
        <path id="path94" class="cls-16" d="m389.62,390.41c0-2.56-2.08-4.63-4.64-4.63h-57.94c-2.56,0-4.64,2.08-4.64,4.63v56.95c0,2.56,2.08,4.64,4.64,4.64h57.94c2.56,0,4.64-2.08,4.64-4.64v-56.95Z"/>
      </g>
    </g>
    <g id="DISPLAY">
      <path id="path96" class="cls-33" d="m158.38,156.84v15.31l-1.01,1.01h-11.46l-1.01-1.01v-15.31l1.01-1.01h11.46l1.01,1.01Zm-1.91,14.38v-13.45h-7.7v2.91l1.91,1.9v8.64h5.79Z"/>
      <path id="path97" class="cls-33" d="m162.78,173.16l-.98-.98v-15.36l.98-.98h1.9l.98.98v3.84l1.94,1.94v9.59l-.98.98h-3.82Z"/>
      <path id="path98" class="cls-33" d="m171.11,171.22h5.81v-7.69h-6.74l-.98-.98v-5.73l.98-.98h11.51l.98.98v2.86h-1.91v-1.91h-7.69v3.82h8.62l.98.98v9.6l-.98.98h-11.51l-.98-.98v-2.89h1.91v1.94Z"/>
      <path id="path99" class="cls-33" d="m189.91,173.16h-3.85l-.95-.98v-15.36l.98-.98h9.6l.98.98v5.73l-.98.98h-4.8v8.65l-.98.98Zm4.86-11.57v-3.82h-5.81v3.82h5.81Z"/>
      <path id="path100" class="cls-33" d="m210.48,171.22v1.94h-10.56l-.98-.98v-15.36l.98-.98h1.91l.95.95v3.87l1.91,1.91v8.66h5.79Z"/>
      <path id="path101" class="cls-33" d="m213.63,173.16l-.95-.95v-9.65l1.94-1.94v-3.84l.95-.95h7.7l.98.98v3.81l1.94,1.94v10.6h-1.91v-9.63h-5.84v8.68l-.95.95h-3.85Zm4.8-15.39v3.82h3.91v-3.82h-3.91Z"/>
      <path id="path102" class="cls-33" d="m233.39,173.16l-.98-.98v-8.65h-2.89l-.98-.98v-6.71h1.91v5.76h9.66v-5.76h1.91v6.74l-.96.95h-2.89v8.65l-.98.98h-3.79Z"/>
    </g>
    <g id="_02" data-name=" 02">
      <path id="path103" class="cls-33" d="m681.79,814.57v-17.61l1.13-1.13h13.23l1.13,1.13v17.61l-1.13,1.12h-13.23l-1.13-1.12Zm11.07-16.51h-8.88v15.42h6.6v-9.87l2.29-2.24v-3.31Z"/>
      <path id="path104" class="cls-33" d="m700.19,802.47v-5.5l1.13-1.13h13.26l1.13,1.13v11.01l-1.1,1.09h-7.82v4.41h6.73v-2.22h2.18v3.35l-1.1,1.09h-13.32l-1.1-1.09v-6.63l1.14-1.12h9.97v-8.79h-8.85v4.41h-2.26Z"/>
    </g>
    <g id="_01" data-name=" 01">
      <path id="path105" class="cls-33" d="m80.54,627.83v-17.61l1.13-1.13h13.23l1.13,1.13v17.61l-1.13,1.13h-13.23l-1.13-1.13Zm11.07-16.51h-8.89v15.42h6.6v-9.87l2.29-2.24v-3.31Z"/>
      <path id="path106" class="cls-33" d="m99.11,616.8l2.25-2.25v-4.33l1.13-1.13h2.15l1.13,1.13v17.61l-1.13,1.13h-4.41l-1.13-1.13v-11.02Z"/>
    </g>
    <g id="_0-01" data-name=" 0-01">
      <path id="path107" class="cls-33" d="m167.23,463.29v-17.61l1.13-1.13h13.23l1.13,1.13v17.61l-1.13,1.12h-13.23l-1.13-1.12Zm11.07-16.51h-8.89v15.42h6.6v-9.87l2.29-2.24v-3.3Z"/>
      <rect id="rect107" class="cls-33" x="186.19" y="453.4" width="9.95" height="2.22"/>
      <path id="path108" class="cls-33" d="m199.32,463.29v-17.61l1.13-1.13h13.23l1.13,1.13v17.61l-1.13,1.12h-13.23l-1.13-1.12Zm11.07-16.51h-8.89v15.42h6.6v-9.87l2.29-2.24v-3.3Z"/>
      <path id="path109" class="cls-33" d="m217.89,452.26l2.25-2.25v-4.34l1.13-1.13h2.15l1.13,1.13v17.61l-1.13,1.12h-4.41l-1.13-1.12v-11.02Z"/>
    </g>
    <g id="_03" data-name=" 03">
      <path id="path110" class="cls-33" d="m862.86,423.17v-17.61l1.12-1.13h13.24l1.12,1.13v17.61l-1.12,1.12h-13.24l-1.12-1.12Zm11.07-16.51h-8.89v15.42h6.6v-9.87l2.29-2.24v-3.3Z"/>
      <path id="path111" class="cls-33" d="m883.48,408.84h-2.18v-3.28l1.12-1.13h11.01l1.13,1.13v4.44l2.18,2.18v10.99l-1.12,1.12h-13.2l-1.12-1.13v-5.5h2.18v4.41h6.67v-8.82h-6.67v-2.22h6.67v-4.38h-6.67v2.19Z"/>
    </g>
    <g id="_01-202" data-name=" 01-202">
      <path id="path112" class="cls-33" d="m747.8,173.92v-17.61l1.13-1.13h13.23l1.13,1.13v17.61l-1.13,1.13h-13.23l-1.13-1.13Zm11.07-16.51h-8.89v15.42h6.6v-9.87l2.29-2.24v-3.3Z"/>
      <path id="path113" class="cls-33" d="m766.37,162.89l2.26-2.25v-4.33l1.13-1.13h2.16l1.13,1.13v17.61l-1.13,1.13h-4.41l-1.13-1.13v-11.02Z"/>
      <rect id="rect113" class="cls-33" x="775.89" y="164.03" width="9.95" height="2.22"/>
      <path id="path114" class="cls-33" d="m789.18,161.81v-5.5l1.13-1.13h13.26l1.13,1.12v11.01l-1.1,1.09h-7.81v4.41h6.73v-2.22h2.19v3.35l-1.1,1.09h-13.32l-1.1-1.09v-6.63l1.14-1.13h9.97v-8.79h-8.85v4.41h-2.26Z"/>
      <path id="path115" class="cls-33" d="m807.25,173.92v-17.61l1.13-1.13h13.23l1.13,1.13v17.61l-1.13,1.13h-13.23l-1.13-1.13Zm11.07-16.51h-8.89v15.42h6.6v-9.87l2.29-2.24v-3.3Z"/>
      <path id="path116" class="cls-33" d="m825.65,161.81v-5.5l1.13-1.13h13.25l1.13,1.12v11.01l-1.1,1.09h-7.82v4.41h6.73v-2.22h2.19v3.35l-1.09,1.09h-13.33l-1.09-1.09v-6.63l1.13-1.13h9.97v-8.79h-8.85v4.41h-2.26Z"/>
    </g>
  </g>
  <g id="Light">
    <path id="path117" class="cls-3" d="m470.9,947.81h-62.51L158.62,142.66h62.51l249.77,805.15Zm509.8-229.48l-.65,207.78c0,9.85-.38,21.7-8.09,21.7h-355.63L366.57,142.66h435.55l178.58,575.67Zm1.58-505.8l-1.01,322.08-121.59-391.96h100.92l21.68,69.88Z"/>
    <g id="g118">
      <path id="path118" class="cls-6" d="m953.42,169.16v755.69c0,3.32-77.07,12.11-73.74,12.11s85.79,1.86,85.79-1.47V256.91l2.1-30.92c4.67-52.19,4.13-66.07.52-70.3-.09-.1-2.93-3.47-5.75-3.59-68.66-2.87-938.3.67-941.5.67-.36,0-3.1,5.38,16.54,5.67,14.89.21,34.98,1.05,59.17.63,22.89-.4,48.87-.43,76.47.56,6.46.23,13.08-.24,19.8.13,37.29,2.03,76.27,2.26,115.44.66,34.61-1.41,70.71.37,107.33.56,39.64.21,68.57-1.46,108.21,1.9,34.13,2.89,125.04.91,157.02-2,6.68-.61,13.38.08,19.99.12,144.32.86,218,3.1,248.32,4.27,4.89.19,4.29,3.72,4.29,3.89Z"/>
    </g>
  </g>
  <g id="g120">
    <path id="path119" class="cls-20" d="m877.12,205.26c0-15.13-12.28-27.4-27.41-27.4H140.14c-15.12,0-27.4,12.28-27.4,27.4v155.99c0,15.12,12.28,27.4,27.4,27.4h709.57c15.13,0,27.41-12.28,27.41-27.4v-155.99Z"/>
    <path id="path120" class="cls-12" d="m877.12,205.26c0-15.13-12.28-27.4-27.41-27.4H140.14c-15.12,0-27.4,12.28-27.4,27.4v155.99c0,15.12,12.28,27.4,27.4,27.4h709.57c15.13,0,27.41-12.28,27.41-27.4v-155.99Zm-4.52,0v155.99c0,12.63-10.26,22.88-22.88,22.88H140.14c-12.63,0-22.88-10.25-22.88-22.88v-155.99c0-12.63,10.25-22.88,22.88-22.88h709.57c12.63,0,22.88,10.25,22.88,22.88Z"/>
  </g>
  <g id="g121">
    <polygon id="rect120" class="cls-21" points="486.68 182.84 763 182.84 593.88 384.19 317.56 384.19 486.68 182.84"/>
  </g>
  <g id="g122">
    <polygon id="rect121" class="cls-21" points="367.1 182.84 436.62 182.84 267.5 384.19 197.98 384.19 367.1 182.84"/>
  </g>
  <g id="g123">
    <path id="path122" class="cls-14" d="m851.83,223.09c0-11.67-9.47-21.14-21.14-21.14H159.88c-11.67,0-21.14,9.47-21.14,21.14v120.33c0,11.67,9.47,21.14,21.14,21.14h670.81c11.66,0,21.14-9.47,21.14-21.14v-120.33Z"/>
  </g>
  <g>
    <g id="g127">
      <path id="path126" class="cls-9" d="m530.67,296.31h-20.56v20.23h20.56v-20.23Zm0-35.9h-20.56v20.23h20.56v-20.23Z"/>
    </g>
    <g id="pack">
      <g id="g128">
        <path id="path127" class="cls-9" d="m545.59,244.97h45.65l10.06,10.39v30.04l-10.06,8.54h-23.12v31.89h-22.53v-80.86Zm22.55,14.35h16.07v19.32h-16.07v-19.32Z"/>
      </g>
      <g id="g129">
        <path id="path128" class="cls-9" d="m619.43,244.97l-10.3,10.39v70.47h19.88v-26.2h15.36v26.2h19.88v-70.47l-10.58-10.39h-34.23Zm9.55,35.09h15.42v-18.13h-15.42v18.13Z"/>
      </g>
      <g id="g130">
        <path id="path129" class="cls-9" d="m684.63,244.97l-11.72,10.39v59.34l11.72,11.13h43.16v-23.89h-32.59v-32.18h32.59v-24.8h-43.16Z"/>
      </g>
      <g id="g131">
        <path id="path130" class="cls-9" d="m736.23,244.97v80.86h24.4v-31.89l16.98,31.89h22.55l-23.94-45.47,23.94-35.38h-20.63l-18.9,28.9v-28.9h-24.4Z"/>
      </g>
    </g>
  </g>
  <g id="g139">
    <path id="path138" class="cls-2" d="m851.83,223.09c0-11.67-9.47-21.14-21.14-21.14H159.88c-11.67,0-21.14,9.47-21.14,21.14v120.33c0,11.67,9.47,21.14,21.14,21.14h670.81c11.66,0,21.14-9.47,21.14-21.14v-120.33Zm-12.06,0v120.33c0,5.01-4.07,9.08-9.08,9.08H159.88c-5.01,0-9.08-4.07-9.08-9.08v-120.33c0-5.01,4.07-9.08,9.08-9.08h670.81c5.01,0,9.08,4.07,9.08,9.08Z"/>
  </g>
  <polygon class="cls-26" points="232.58 306.59 232.58 306.63 232.55 306.63 232.58 306.59"/>
  <path class="cls-26" d="m428.41,307.48v.17h-.14c.04-.06.09-.11.14-.17Z"/>
  <g>
    <path class="cls-9" d="m238.34,259.62l-11.16-15.07-.07.07v-.07h-44.59v81.9h44.59v-.07l.07.07,11.13-15.03.03-.04v-51.73h-.02l.02-.02Zm-38.67,1.8h18.32l3.28,4.44v39.28l-3.28,4.44h-18.32v-48.15Z"/>
    <path class="cls-9" d="m425.26,244.54v67.79c-.05.07-.1.12-.13.18-3.4,4.58-6.8,9.14-10.18,13.73v.2h-34.04v-.07l-.07.07c-3.44-4.64-6.87-9.28-10.32-13.93h-.02v-67.98h17.15v59.04l2.54,3.3h15.27l2.66-3.46v-58.88h17.15Z"/>
    <polygon class="cls-9" points="266.67 264.11 266.67 275.71 287.2 275.71 287.2 295.28 266.67 295.28 266.67 306.88 292.97 306.88 292.97 326.45 249.53 326.45 249.53 244.54 292.97 244.54 292.97 264.11 266.67 264.11"/>
    <path class="cls-9" d="m359.74,258.73h-.16l.03-.03-10.86-14.35-.2.2h-44.74v81.9h44.81v-.26l.07.07,10.86-14.35-.05-.04h.17v-16.85h-.03l.03-.03-8.12-10.73,8.18-10.8v-14.72Zm-38.78,5.38h18.43l1.5,1.98v6.63l-2.26,2.99h-17.67v-11.6Zm0,28.36h17.41l2.52,3.33v8.62l-1.86,2.46h-18.07v-14.41Z"/>
    <polygon class="cls-9" points="492.75 259.64 492.77 259.64 492.77 271.18 475.7 271.18 475.7 265.86 472.42 261.42 457.38 261.42 454.1 265.86 454.1 305.14 457.38 309.57 472.42 309.57 475.7 305.14 475.7 296.38 462.76 296.38 462.76 277.85 492.77 277.85 492.77 311.37 492.74 311.42 481.61 326.45 481.55 326.38 481.55 326.45 448.26 326.45 448.26 326.38 448.19 326.45 437.06 311.42 437.03 311.37 437.03 259.64 437.05 259.64 437.03 259.62 448.19 244.54 448.26 244.61 448.26 244.54 481.55 244.54 481.55 244.61 481.61 244.54 492.77 259.62 492.75 259.64"/>
  </g>
  <g id="g138">
    <g id="g132">
      <polygon id="rect131" class="cls-1" points="477.74 211.68 706.04 211.68 584.56 356.31 356.26 356.31 477.74 211.68"/>
    </g>
    <g id="g133">
      <polygon id="rect132" class="cls-1" points="354.2 211.68 403.97 211.68 282.49 356.31 232.72 356.31 354.2 211.68"/>
    </g>
    <g id="g134">
      <path id="path133" class="cls-34" d="m828.4,224.76l.08,64.79"/>
    </g>
    <g id="g135">
      <path id="path134" class="cls-34" d="m815.36,341.88l13.04-.17s.02-16.11.08-17.31"/>
    </g>
    <g id="g136">
      <path id="path135" class="cls-34" d="m164,341.7s-.02-16.11-.08-17.31"/>
    </g>
    <g id="g137">
      <path id="path136" class="cls-34" d="m179.33,224.76l-17.4.09-.29,35.68"/>
    </g>
  </g>
</svg>